<svg width="528" height="47" viewBox="0 0 528 47" fill="none" xmlns="http://www.w3.org/2000/svg">
<path className="name-path" d="M517.775 16.752C518.447 16.752 518.784 17.0078 518.784 17.5195L518.774 17.6914C518.732 18.0972 518.544 18.552 518.208 19.0557C517.984 19.4077 517.631 20 517.151 20.832C516.671 21.664 516.176 22.5764 515.664 23.5684C515.184 24.5282 514.768 25.424 514.416 26.2559C514.064 27.0879 513.888 27.6961 513.888 28.0801C513.888 28.528 514.112 28.7519 514.56 28.752C514.912 28.752 515.343 28.5756 515.855 28.2236C516.367 27.8397 516.895 27.3918 517.439 26.8799C518.367 25.984 519.215 24.9922 519.983 23.9043C520.783 22.8163 521.472 21.7762 522.048 20.7842C522.144 20.6242 522.303 20.3359 522.527 19.9199C522.783 19.5039 523.04 19.1037 523.296 18.7197C523.584 18.3359 523.808 18.1118 523.968 18.0479C524.128 17.9838 524.448 17.8075 524.928 17.5195C525.408 17.2316 525.888 17.0403 526.368 16.9443L526.528 17.749C526.523 17.7526 526.517 17.7561 526.512 17.7598L526.308 17.8887C526.116 18.0266 525.96 18.1918 525.84 18.3838L525.636 18.7002C525.367 19.1401 525.018 19.7865 524.592 20.6396C524.08 21.7276 523.503 22.9917 522.863 24.4316C522.255 25.8396 521.648 27.28 521.04 28.752C520.432 30.192 519.871 31.5203 519.359 32.7363C518.591 34.5602 517.712 36.3366 516.72 38.0645C515.728 39.8242 514.56 41.3917 513.216 42.7676C511.904 44.1756 510.336 45.2801 508.512 46.0801C507.424 46.56 506.224 46.7998 504.912 46.7998C503.696 46.7998 502.528 46.5115 501.408 45.9355C500.256 45.3915 499.407 44.5436 498.863 43.3916C498.671 42.9757 498.543 42.5277 498.479 42.0479C498.432 41.7119 498.402 41.376 498.39 41.04L498.384 40.7041V40.1758C498.384 39.9839 498.402 39.8009 498.438 39.627L498.479 39.4561C498.543 39.2641 498.704 39.168 498.96 39.168C499.024 39.168 499.056 39.2 499.056 39.2637L499.044 39.5518C499.036 39.6478 499.024 39.7438 499.008 39.8398L498.972 40.1396C498.964 40.2437 498.96 40.3518 498.96 40.4639L498.965 40.7041C499.015 42.0583 499.492 43.0985 500.399 43.8242C501.327 44.5921 502.496 44.9755 503.903 44.9756C504.479 44.9756 505.072 44.9122 505.68 44.7842C506.288 44.6562 506.864 44.4799 507.408 44.2559C509.424 43.3919 511.168 42.1595 512.64 40.5596C514.144 38.9916 515.456 37.2163 516.576 35.2324C517.696 33.2484 518.704 31.2316 519.6 29.1836C520.112 27.9677 520.559 26.7837 520.943 25.6318C521.359 24.4798 521.728 23.4397 522.048 22.5117C521.728 22.9596 521.312 23.5037 520.8 24.1436C520.288 24.7835 519.776 25.4077 519.264 26.0156C518.752 26.5916 518.304 27.0562 517.92 27.4082C517.12 28.1761 516.256 28.832 515.328 29.376C514.432 29.8879 513.504 30.1435 512.544 30.1436C512.224 30.1436 511.952 30.0801 511.728 29.9521C511.504 29.8242 511.392 29.5841 511.392 29.2324C511.392 28.7845 511.504 28.2562 511.728 27.6484C511.984 27.0405 512.256 26.4322 512.544 25.8242C512.832 25.2162 513.072 24.7199 513.264 24.3359C513.648 23.5999 514.016 22.8639 514.368 22.1279C514.72 21.3921 515.023 20.7678 515.279 20.2559C515.535 19.7759 515.664 19.4559 515.664 19.2959C515.664 19.04 515.472 19.04 515.088 19.2959C514.736 19.5519 514.4 19.8085 514.08 20.0645C513.376 20.7364 512.64 21.536 511.872 22.4639C511.104 23.3599 510.512 24.08 510.096 24.624C510 24.752 509.919 24.8164 509.855 24.8164C509.792 24.8162 509.76 24.7358 509.76 24.5762C509.76 24.3843 509.805 24.2012 509.895 24.0273L510 23.8564C510.448 23.2164 510.976 22.5121 511.584 21.7441C512.192 20.9761 512.816 20.2401 513.456 19.5361C514.064 18.8962 514.688 18.272 515.328 17.6641C515.968 17.0562 516.784 16.752 517.775 16.752ZM527.376 16.7998C527.728 16.7998 527.903 16.896 527.903 17.0879L527.897 17.1777C527.866 17.374 527.724 17.4717 527.472 17.4717C527.126 17.4717 526.812 17.5643 526.528 17.749L526.368 16.9443C526.816 16.8484 527.152 16.7998 527.376 16.7998Z" fill="black"/>
<path className="name-path" d="M508.944 4.5C508.902 4.50707 508.855 4.5117 508.803 4.51172V4.47852L508.944 4.5ZM509.321 3.31152C509.303 3.64768 509.259 3.98416 509.187 4.32031L509.17 4.36523C509.134 4.43678 509.059 4.48075 508.944 4.5L508.803 4.47852V4.51172L508.742 4.50879C508.694 4.50278 508.682 4.48778 508.706 4.46387C508.826 3.68406 508.637 3.11496 508.139 2.75684L508.034 2.68848C507.49 2.33654 506.787 2.16022 505.923 2.16016C504.355 2.16016 502.915 2.44841 501.603 3.02441C500.291 3.60041 499.074 4.36813 497.954 5.32812C496.226 6.83208 494.722 8.75203 493.442 11.0879C492.162 13.4239 491.058 15.8082 490.13 18.2402C489.682 19.4241 489.234 20.6081 488.786 21.792C488.37 22.9759 487.97 24.0796 487.586 25.1035C489.026 23.1836 490.403 21.5361 491.715 20.1602C493.059 18.7842 494.227 17.8084 495.219 17.2324C496.019 16.7846 496.738 16.5597 497.378 16.5596C497.986 16.5596 498.29 16.8161 498.29 17.3281L498.28 17.502C498.231 17.9219 498.01 18.4397 497.618 19.0557C497.394 19.4077 497.042 20.0001 496.562 20.832C496.114 21.664 495.634 22.5764 495.122 23.5684C494.642 24.5282 494.226 25.424 493.874 26.2559C493.522 27.0879 493.347 27.6961 493.347 28.0801C493.347 28.592 493.571 28.8477 494.019 28.8477C494.274 28.8476 494.563 28.7684 494.883 28.6084C495.235 28.4484 495.49 28.3038 495.65 28.1758C496.514 27.5358 497.362 26.7521 498.194 25.8242C498.97 24.9588 499.634 24.1901 500.187 23.5195L500.307 23.376C500.338 23.3443 500.354 23.3921 500.354 23.5195L500.349 23.6279C500.337 23.7479 500.307 23.9038 500.259 24.0957C500.227 24.3196 500.131 24.5119 499.971 24.6719C499.619 25.1519 499.25 25.6165 498.866 26.0645C498.514 26.4802 498.162 26.8958 497.811 27.3115C497.203 28.0155 496.467 28.6881 495.603 29.3281C494.771 29.9681 493.826 30.2881 492.77 30.2881C492.291 30.2881 491.859 30.1919 491.475 30C491.123 29.808 490.946 29.4562 490.946 28.9443C490.946 28.6564 491.011 28.3363 491.139 27.9844C491.427 27.2484 491.81 26.3519 492.29 25.2959C492.802 24.2399 493.314 23.2156 493.826 22.2236C494.338 21.1997 494.738 20.3675 495.026 19.7275C495.218 19.3438 495.314 19.0721 495.314 18.9121C495.314 18.6241 495.154 18.5597 494.834 18.7197C494.514 18.8797 494.162 19.1037 493.778 19.3916C493.394 19.6796 493.106 19.9045 492.914 20.0645C492.082 20.8323 491.202 21.744 490.274 22.7998C489.378 23.8238 488.546 24.9125 487.778 26.0645C487.042 27.1842 486.467 28.304 486.051 29.4238C486.019 29.6158 485.811 29.7763 485.427 29.9043L485.145 29.9883C484.868 30.0603 484.61 30.0957 484.37 30.0957L484.193 30.0889C483.869 30.0589 483.726 29.9385 483.762 29.7285L483.794 29.6162C484.53 27.9522 485.283 26.1117 486.051 24.0957C486.851 22.0799 487.746 20.0161 488.738 17.9043C489.474 16.3043 490.291 14.656 491.187 12.96C492.114 11.264 493.139 9.64828 494.259 8.1123C495.379 6.54444 496.61 5.16831 497.954 3.98438C499.138 2.96038 500.435 2.12828 501.843 1.48828C503.283 0.816396 504.834 0.480511 506.498 0.480469C507.234 0.480469 507.874 0.640083 508.418 0.959961C508.962 1.24795 509.266 1.77599 509.33 2.54395V2.97559L509.321 3.31152Z" fill="black"/>
<path className="name-path" d="M474.872 9.93555C475.16 9.93556 475.432 10.0158 475.688 10.1758L475.788 10.2402C476.005 10.4012 476.1 10.6361 476.072 10.9443L475.976 12.2881C475.976 12.384 475.912 12.4316 475.784 12.4316C475.784 12.4316 475.768 12.4316 475.736 12.4316V12.3838C475.736 12.0479 475.626 11.8099 475.405 11.6699L475.304 11.6162C475.048 11.4563 474.792 11.376 474.536 11.376C473.448 11.376 472.472 11.7604 471.608 12.5283C470.776 13.2643 470.04 14.2242 469.4 15.4082C468.76 16.5922 468.216 17.8403 467.768 19.1523C467.32 20.4322 466.952 21.6162 466.664 22.7041C466.888 22.5121 467.288 22.1119 467.864 21.5039C468.472 20.896 469.176 20.24 469.976 19.5361C470.776 18.8322 471.592 18.2239 472.424 17.7119C473.256 17.2 474.024 16.9444 474.728 16.9443C475.143 16.9443 475.384 17.1358 475.448 17.5195C475.544 17.8715 475.56 18.2083 475.496 18.5283C475.336 19.7122 474.936 20.9923 474.296 22.3682C473.656 23.7441 472.824 25.0558 471.8 26.3037C470.808 27.5196 469.688 28.5123 468.44 29.2803C467.224 30.0483 465.944 30.4316 464.6 30.4316C464.44 30.4316 464.215 30.4158 463.928 30.3838C463.672 30.3838 463.512 30.352 463.448 30.2881C462.776 32.3041 461.912 34.3685 460.856 36.4805C459.8 38.5924 458.536 40.4964 457.064 42.1924C455.561 43.9203 453.784 45.2161 451.736 46.0801C450.648 46.5601 449.448 46.7998 448.136 46.7998C446.92 46.7998 445.752 46.5115 444.632 45.9355C443.48 45.3915 442.632 44.5435 442.088 43.3916C441.896 42.9757 441.768 42.5277 441.704 42.0479C441.656 41.7119 441.626 41.376 441.614 41.04L441.608 40.7041V40.1758C441.608 39.9838 441.626 39.8009 441.662 39.627L441.704 39.4561C441.768 39.2642 441.928 39.1681 442.184 39.168C442.279 39.168 442.328 39.1999 442.328 39.2637L442.316 39.5518C442.308 39.6478 442.296 39.7438 442.28 39.8398L442.238 39.9873C442.202 40.1372 442.184 40.296 442.184 40.4639L442.188 40.7041C442.238 42.0583 442.717 43.0985 443.624 43.8242C444.552 44.5921 445.72 44.9756 447.128 44.9756C447.704 44.9756 448.296 44.9122 448.904 44.7842C449.512 44.6562 450.088 44.4798 450.632 44.2559C452.648 43.3919 454.408 42.1763 455.912 40.6084C457.416 39.0405 458.728 37.2641 459.848 35.2803C460.968 33.2963 461.96 31.2636 462.824 29.1836C463.752 26.9117 464.632 24.6717 465.464 22.4639C466.328 20.2239 467.288 18.0317 468.344 15.8877C469.336 13.9038 470.392 12.4158 471.512 11.4238C472.632 10.4318 473.752 9.93555 474.872 9.93555ZM472.76 18.5762C472.472 18.5763 472.088 18.7519 471.608 19.1035C471.128 19.4555 470.616 19.8884 470.072 20.4004C469.56 20.8804 469.08 21.3599 468.632 21.8398C468.184 22.2878 467.864 22.6237 467.672 22.8477C467.352 23.2317 466.92 23.7923 466.376 24.5283C465.832 25.2643 465.352 26.0163 464.936 26.7842C464.52 27.52 464.312 28.1443 464.312 28.6562C464.312 29.2961 464.648 29.6162 465.32 29.6162C465.8 29.6161 466.344 29.424 466.952 29.04C467.592 28.6241 468.072 28.2555 468.392 27.9355C468.776 27.5835 469.224 27.0397 469.736 26.3037C470.28 25.5358 470.808 24.7035 471.32 23.8076C471.864 22.9118 472.312 22.0477 472.664 21.2158C473.016 20.384 473.192 19.7121 473.192 19.2002C473.192 19.0402 473.16 18.8956 473.096 18.7676C473.032 18.6399 472.92 18.5762 472.76 18.5762Z" fill="black"/>
<path className="name-path" d="M447.946 17.5195C447.434 17.5196 446.874 17.7118 446.267 18.0957C445.691 18.4477 445.227 18.8004 444.875 19.1523C444.491 19.5043 444.026 20.064 443.482 20.832C442.97 21.568 442.458 22.3843 441.946 23.2803C441.434 24.1762 441.002 25.0402 440.65 25.8721C440.298 26.7038 440.123 27.3758 440.123 27.8877C440.123 28.2717 440.251 28.4639 440.507 28.4639C440.891 28.4638 441.419 28.1923 442.091 27.6484C442.795 27.0724 443.547 26.3681 444.347 25.5361C445.147 24.6721 445.899 23.7757 446.603 22.8477C447.306 21.8877 447.883 21.0238 448.331 20.2559C448.811 19.456 449.051 18.8476 449.051 18.4316C449.051 18.0799 448.939 17.8399 448.715 17.7119C448.523 17.5839 448.266 17.5195 447.946 17.5195ZM453.46 17.1777C453.429 17.3739 453.286 17.4717 453.034 17.4717C452.714 17.4719 452.394 17.6799 452.074 18.0957L451.85 18.3721C451.64 18.636 451.474 18.8637 451.354 19.0557C451.13 19.4077 450.779 20.0001 450.299 20.832C449.819 21.664 449.323 22.5764 448.811 23.5684C448.331 24.5282 447.914 25.424 447.562 26.2559C447.211 27.0879 447.034 27.6961 447.034 28.0801C447.034 28.528 447.259 28.752 447.707 28.752C448.187 28.7518 448.731 28.5279 449.339 28.0801C449.947 27.6321 450.555 27.0882 451.163 26.4482C451.803 25.7764 452.379 25.1203 452.891 24.4805C453.434 23.8087 453.867 23.2805 454.187 22.8965C454.378 23.0885 454.363 23.3601 454.139 23.7119C453.947 24.0319 453.77 24.2885 453.61 24.4805C452.97 25.3123 452.234 26.1764 451.402 27.0723C450.57 27.9361 449.659 28.6724 448.667 29.2803C447.707 29.8563 446.714 30.1436 445.69 30.1436C445.371 30.1435 445.099 30.08 444.875 29.9521C444.651 29.8242 444.539 29.5842 444.539 29.2324C444.539 28.7845 444.651 28.2722 444.875 27.6963C445.099 27.1203 445.355 26.5596 445.643 26.0156C445.93 25.4399 446.186 24.9759 446.41 24.624C445.29 25.8079 444.122 26.9284 442.906 27.9844C442.298 28.4962 441.626 28.9759 440.891 29.4238C440.155 29.8717 439.371 30.0956 438.539 30.0957C438.219 30.0957 437.994 29.9996 437.866 29.8076C437.738 29.5837 437.675 29.3278 437.675 29.04C437.675 28.8801 437.691 28.7681 437.723 28.7041C437.883 27.4562 438.283 26.1603 438.923 24.8164C439.563 23.4725 440.347 22.2083 441.274 21.0244C442.202 19.8404 443.146 18.8796 444.106 18.1436C445.194 17.3116 446.395 16.8965 447.707 16.8965H453.227L453.332 16.9082C453.422 16.9323 453.467 16.9921 453.467 17.0879L453.46 17.1777Z" fill="black"/>
<path className="name-path" d="M416.293 30.6719L416.251 30.666C416.191 30.6462 416.181 30.5764 416.221 30.4561L416.293 30.2881V30.6719ZM428.484 20.4482C428.484 19.9722 428.399 19.5324 428.228 19.1299L428.148 18.96C427.956 18.5121 427.589 18.2882 427.045 18.2881C426.533 18.2881 425.909 18.6081 425.173 19.248C424.437 19.888 423.701 20.6241 422.965 21.4561C422.037 22.5441 421.301 23.5842 420.757 24.5762C420.213 25.5362 419.764 26.4802 419.412 27.4082C419.22 27.9201 419.029 28.4324 418.837 28.9443C418.645 29.4242 418.5 29.8078 418.404 30.0957L418.093 30.1318C417.781 30.1798 417.468 30.2638 417.156 30.3838C416.741 30.5756 416.453 30.6717 416.293 30.6719V30.2881C416.453 30.0001 416.597 29.68 416.725 29.3281C416.885 28.9761 417.044 28.5918 417.204 28.1758C417.524 27.4078 417.877 26.544 418.261 25.584C418.645 24.624 419.012 23.6958 419.364 22.7998C419.716 21.872 420.02 21.0882 420.276 20.4482C420.564 19.7765 420.756 19.3445 420.853 19.1523C420.405 19.6322 419.861 20.2398 419.221 20.9756C418.613 21.6796 418.036 22.368 417.492 23.04C416.948 23.712 416.532 24.2401 416.244 24.624C416.148 24.7516 416.069 24.8162 416.005 24.8164C415.941 24.8164 415.908 24.7361 415.908 24.5762C415.908 24.3203 415.989 24.0804 416.148 23.8564C416.756 23.0884 417.428 22.2237 418.164 21.2637C418.932 20.3037 419.621 19.424 420.229 18.624C420.837 17.792 421.221 17.2482 421.381 16.9922C421.733 16.9282 422.244 16.832 422.916 16.7041C423.62 16.5761 424.1 16.3998 424.356 16.1758C424.452 16.0798 424.549 16.0322 424.645 16.0322C424.708 16.0322 424.74 16.0959 424.74 16.2236C424.772 16.3196 424.74 16.4317 424.645 16.5596C424.453 16.7516 424.164 17.1677 423.78 17.8076C423.428 18.4476 423.028 19.1837 422.58 20.0156C422.132 20.8476 421.7 21.648 421.284 22.416C421.604 21.9361 422.02 21.3762 422.532 20.7363C423.076 20.0644 423.669 19.4244 424.309 18.8164C424.949 18.1765 425.589 17.6484 426.229 17.2324C426.901 16.8164 427.525 16.6084 428.101 16.6084C428.517 16.6084 428.868 16.7045 429.156 16.8965C429.444 17.0564 429.668 17.3599 429.828 17.8076C429.924 18.0316 429.973 18.2882 429.973 18.5762C429.973 19.1201 429.828 19.6482 429.54 20.1602C429.284 20.6398 429.093 21.0077 428.965 21.2637C428.933 21.3596 428.821 21.4558 428.629 21.5518L428.506 21.582C428.404 21.5942 428.365 21.5522 428.389 21.4561C428.421 21.2961 428.437 21.1356 428.437 20.9756C428.453 20.8956 428.465 20.8116 428.473 20.7236L428.484 20.4482Z" fill="black"/>
<path className="name-path" d="M402.054 17.5195C401.542 17.5195 400.997 17.7117 400.421 18.0957C399.845 18.4477 399.381 18.8004 399.029 19.1523C398.645 19.5043 398.182 20.0642 397.638 20.832C397.126 21.568 396.598 22.3843 396.054 23.2803C395.542 24.1762 395.11 25.0401 394.758 25.8721C394.406 26.7039 394.23 27.3757 394.229 27.8877C394.229 28.2716 394.373 28.4638 394.661 28.4639C395.045 28.4639 395.573 28.1922 396.245 27.6484C396.917 27.0725 397.653 26.3681 398.453 25.5361C399.253 24.6721 400.005 23.7757 400.709 22.8477C401.413 21.8877 401.99 21.0238 402.438 20.2559C402.917 19.4559 403.157 18.8476 403.157 18.4316C403.157 18.0798 403.045 17.8399 402.821 17.7119C402.629 17.584 402.373 17.5196 402.054 17.5195ZM407.614 17.1777C407.583 17.3738 407.441 17.4717 407.189 17.4717C406.837 17.4717 406.502 17.6163 406.182 17.9043C405.862 18.1923 405.621 18.4637 405.461 18.7197C405.141 19.2317 404.725 20.0163 404.213 21.0723C403.701 22.1281 403.141 23.344 402.533 24.7197C401.925 26.0637 401.317 27.4397 400.709 28.8477C400.101 30.2237 399.541 31.5203 399.029 32.7363C398.261 34.5602 397.382 36.3365 396.39 38.0645C395.43 39.8242 394.277 41.3917 392.934 42.7676C391.622 44.1756 390.053 45.2801 388.229 46.0801C387.141 46.5601 385.941 46.7998 384.629 46.7998C383.413 46.7997 382.245 46.5115 381.125 45.9355C379.973 45.3915 379.125 44.5434 378.581 43.3916C378.357 42.9757 378.213 42.5277 378.149 42.0479C378.101 41.7119 378.072 41.376 378.06 41.04L378.054 40.7041V40.2236C378.054 39.9678 378.085 39.7278 378.149 39.5039C378.213 39.28 378.39 39.168 378.678 39.168C378.741 39.1681 378.773 39.2 378.773 39.2637L378.762 39.5518C378.754 39.6478 378.742 39.7438 378.726 39.8398L378.689 40.1396C378.681 40.2437 378.678 40.3518 378.678 40.4639L378.682 40.7041C378.732 42.0583 379.21 43.0985 380.117 43.8242C381.045 44.5922 382.213 44.9755 383.621 44.9756C384.197 44.9756 384.789 44.9122 385.397 44.7842C386.005 44.6562 386.565 44.4798 387.077 44.2559C389.125 43.3919 390.901 42.1437 392.405 40.5117C393.941 38.8798 395.27 37.0401 396.39 34.9922C397.542 32.9442 398.549 30.848 399.413 28.7041C400.309 26.5281 401.141 24.4796 401.909 22.5596C401.237 23.6476 400.501 24.6243 399.701 25.4883C398.901 26.3202 398.006 27.1525 397.014 27.9844C396.406 28.4964 395.733 28.9758 394.997 29.4238C394.293 29.8718 393.525 30.0957 392.693 30.0957C392.373 30.0957 392.149 29.9996 392.021 29.8076C391.894 29.5837 391.829 29.3279 391.829 29.04V28.7041C391.989 27.4562 392.389 26.1603 393.029 24.8164C393.701 23.4724 394.502 22.2084 395.43 21.0244C396.358 19.8404 397.302 18.8796 398.262 18.1436C399.35 17.3118 400.55 16.8965 401.861 16.8965H407.382L407.486 16.9082C407.576 16.9322 407.621 16.992 407.621 17.0879L407.614 17.1777Z" fill="black"/>
<path className="name-path" d="M380.278 16.6562C380.79 16.6563 381.238 16.8 381.622 17.0879C382.006 17.3439 382.198 17.8243 382.198 18.5283L382.185 18.9375C382.122 19.8965 381.838 20.8797 381.334 21.8877C380.79 23.0077 380.214 24.0003 379.606 24.8643C379.318 25.2482 379.03 25.6158 378.742 25.9678C378.454 26.2877 378.134 26.6237 377.782 26.9756C378.966 26.9756 380.054 26.6397 381.046 25.9678C382.038 25.2638 382.903 24.4158 383.639 23.4238L383.734 23.3281C383.83 23.3282 383.878 23.4243 383.878 23.6162C383.878 23.8401 383.814 24.0483 383.687 24.2402L383.438 24.5713C382.843 25.3343 382.126 26.0237 381.286 26.6396C380.326 27.3116 379.238 27.6484 378.022 27.6484H377.639C377.511 27.6484 377.382 27.6316 377.254 27.5996C375.462 29.2636 373.446 30.0957 371.206 30.0957C370.694 30.0957 370.23 29.9996 369.814 29.8076C369.43 29.5836 369.238 29.12 369.238 28.416C369.238 27.296 369.527 26.1757 370.103 25.0557C370.678 23.904 371.27 22.8961 371.878 22.0322C372.422 21.2962 373.03 20.6078 373.702 19.9678C374.406 19.2959 375.158 18.7202 375.958 18.2402C376.47 17.9202 377.158 17.5844 378.022 17.2324C378.918 16.8484 379.67 16.6562 380.278 16.6562ZM379.126 17.4238C378.71 17.4239 378.198 17.6002 377.59 17.9521C377.014 18.3041 376.582 18.6242 376.294 18.9121C375.206 20.0319 374.295 21.2478 373.559 22.5596C373.143 23.2956 372.694 24.1603 372.214 25.1523C371.734 26.1441 371.494 27.0559 371.494 27.8877V28.2725C371.526 28.3684 371.558 28.4806 371.59 28.6084C371.718 29.0562 372.006 29.2802 372.454 29.2803C372.902 29.2803 373.383 29.1198 373.895 28.7998C374.438 28.4799 374.855 28.1756 375.143 27.8877C375.686 27.3439 376.182 26.7679 376.63 26.1602C377.078 25.5203 377.494 24.8801 377.878 24.2402C378.326 23.4722 378.775 22.5599 379.223 21.5039C379.615 20.58 379.835 19.7049 379.884 18.8789L379.895 18.5283C379.895 17.7923 379.638 17.4238 379.126 17.4238Z" fill="black"/>
<path className="name-path" d="M362.688 17.0879C362.635 17.1999 362.399 17.3118 361.979 17.4238C361.435 17.5838 360.859 17.6799 360.251 17.7119C359.675 17.7439 359.13 17.8083 358.618 17.9043C358.138 18.0003 357.786 18.2084 357.562 18.5283C357.371 18.7524 357.099 19.2322 356.747 19.9678C356.395 20.7037 356.011 21.5518 355.595 22.5117C355.211 23.4396 354.875 24.3839 354.587 25.3438C354.299 26.2717 354.123 27.0563 354.059 27.6963V27.8877C354.059 28.1437 354.139 28.3517 354.299 28.5117C354.459 28.6716 354.618 28.7518 354.778 28.752C355.194 28.752 355.722 28.4962 356.362 27.9844C357.034 27.4724 357.723 26.8641 358.427 26.1602C359.131 25.4242 359.739 24.7516 360.251 24.1436C360.475 23.8878 360.666 23.6477 360.826 23.4238C361.018 23.1998 361.131 23.0562 361.163 22.9922C361.227 23.12 361.259 23.2163 361.259 23.2803C361.259 23.4722 361.194 23.6804 361.066 23.9043C360.97 24.1282 360.858 24.3205 360.73 24.4805C360.123 25.2804 359.386 26.1286 358.522 27.0244C357.659 27.8883 356.73 28.6245 355.738 29.2324C354.778 29.8402 353.787 30.1435 352.763 30.1436C352.443 30.1436 352.17 30.0801 351.946 29.9521C351.723 29.8242 351.61 29.5841 351.61 29.2324C351.61 28.7845 351.722 28.2562 351.946 27.6484C352.202 27.0405 352.475 26.4322 352.763 25.8242C353.051 25.2162 353.29 24.7199 353.482 24.3359C353.642 24.048 353.85 23.6001 354.106 22.9922C354.394 22.3523 354.683 21.6963 354.971 21.0244C355.291 20.3205 355.546 19.728 355.738 19.248C355.957 18.7797 356.069 18.5397 356.074 18.5283C355.786 18.8483 355.403 19.2963 354.923 19.8721C354.475 20.4481 353.979 21.0563 353.435 21.6963C352.923 22.3041 352.443 22.88 351.995 23.4238C351.579 23.9677 351.275 24.368 351.083 24.624C350.987 24.7519 350.907 24.8163 350.843 24.8164C350.779 24.8164 350.747 24.7361 350.747 24.5762C350.747 24.3203 350.827 24.0803 350.986 23.8564C351.37 23.3764 351.835 22.7999 352.379 22.1279C352.923 21.424 353.467 20.7196 354.011 20.0156C354.587 19.3117 355.083 18.6875 355.499 18.1436C355.243 18.1436 354.906 18.1604 354.49 18.1924C354.106 18.2244 353.754 18.272 353.435 18.3359C353.115 18.3679 352.938 18.3838 352.906 18.3838C352.747 18.3836 352.763 18.2558 352.955 18C353.147 17.7441 353.403 17.4883 353.723 17.2324C354.042 16.9766 354.282 16.8478 354.442 16.8477C354.474 16.8477 354.731 16.8645 355.211 16.8965H356.267C356.907 16.0325 357.531 15.0399 358.139 13.9199C358.779 12.7999 359.403 11.5676 360.011 10.2236C360.267 10.1916 360.699 10.0162 361.307 9.69629C361.947 9.34429 362.443 8.99165 362.795 8.63965C362.955 8.47986 363.083 8.40039 363.179 8.40039C363.371 8.40043 363.371 8.52821 363.179 8.78418C362.955 9.04021 362.57 9.58409 362.026 10.416L361.849 10.6826C361.351 11.43 360.801 12.3165 360.202 13.3438C359.53 14.4637 358.89 15.6485 358.282 16.8965H362.171C362.523 16.8965 362.698 16.9441 362.698 17.04L362.688 17.0879Z" fill="black"/>
<path className="name-path" d="M337.899 16.6562C338.411 16.6562 338.859 16.8 339.243 17.0879C339.627 17.3439 339.819 17.8243 339.819 18.5283L339.806 18.9375C339.743 19.8965 339.459 20.8797 338.955 21.8877C338.411 23.0077 337.836 24.0003 337.228 24.8643C336.94 25.2482 336.651 25.6158 336.363 25.9678C336.075 26.2877 335.755 26.6236 335.403 26.9756C336.587 26.9756 337.676 26.6398 338.668 25.9678C339.66 25.2638 340.524 24.4157 341.26 23.4238L341.355 23.3281C341.451 23.3281 341.499 23.4242 341.499 23.6162C341.499 23.8401 341.436 24.0483 341.308 24.2402L341.06 24.5713C340.465 25.3343 339.747 26.0237 338.907 26.6396C337.947 27.3116 336.86 27.6484 335.644 27.6484H335.26C335.132 27.6484 335.004 27.6315 334.876 27.5996C333.084 29.2636 331.067 30.0957 328.827 30.0957C328.315 30.0957 327.851 29.9996 327.436 29.8076C327.052 29.5836 326.859 29.1199 326.859 28.416C326.859 27.296 327.148 26.1757 327.724 25.0557C328.299 23.904 328.891 22.8961 329.499 22.0322C330.043 21.2962 330.651 20.6078 331.323 19.9678C332.027 19.2959 332.779 18.7202 333.579 18.2402C334.091 17.9202 334.78 17.5844 335.644 17.2324C336.54 16.8484 337.291 16.6563 337.899 16.6562ZM336.747 17.4238C336.331 17.4239 335.82 17.6004 335.212 17.9521C334.636 18.3041 334.203 18.6241 333.915 18.9121C332.827 20.0319 331.916 21.2478 331.18 22.5596C330.764 23.2956 330.316 24.1603 329.836 25.1523C329.356 26.1442 329.115 27.0558 329.115 27.8877V28.2725C329.147 28.3684 329.18 28.4805 329.212 28.6084C329.34 29.056 329.628 29.2802 330.075 29.2803C330.523 29.2803 331.004 29.1198 331.516 28.7998C332.06 28.4798 332.476 28.1757 332.764 27.8877C333.308 27.3438 333.804 26.7681 334.252 26.1602C334.7 25.5203 335.115 24.8801 335.499 24.2402C335.947 23.4722 336.396 22.5599 336.844 21.5039C337.236 20.5799 337.456 19.7049 337.505 18.8789L337.516 18.5283C337.516 17.7923 337.259 17.4238 336.747 17.4238Z" fill="black"/>
<path className="name-path" d="M327.148 4.5C327.106 4.50713 327.059 4.51172 327.006 4.51172V4.47852L327.148 4.5ZM327.525 3.31152C327.507 3.64769 327.462 3.98415 327.39 4.32031L327.374 4.36523C327.338 4.43679 327.263 4.4807 327.148 4.5L327.006 4.47852V4.51172L326.946 4.50879C326.898 4.5028 326.886 4.48789 326.91 4.46387C327.03 3.68387 326.841 3.11493 326.342 2.75684L326.238 2.68848C325.694 2.33648 324.99 2.16016 324.126 2.16016C322.558 2.16018 321.118 2.44843 319.806 3.02441C318.494 3.60039 317.278 4.36826 316.158 5.32812C314.43 6.83207 312.926 8.75201 311.646 11.0879C310.366 13.4239 309.262 15.8082 308.334 18.2402C307.886 19.4241 307.438 20.6081 306.99 21.792C306.574 22.9758 306.174 24.0796 305.79 25.1035C307.23 23.1837 308.606 21.5361 309.918 20.1602C311.262 18.7843 312.43 17.8084 313.422 17.2324C314.222 16.7844 314.942 16.5596 315.582 16.5596C316.19 16.5596 316.494 16.8161 316.494 17.3281L316.483 17.502C316.434 17.9219 316.214 18.4398 315.822 19.0557C315.598 19.4076 315.247 20.0001 314.767 20.832C314.319 21.664 313.838 22.5764 313.326 23.5684C312.846 24.5282 312.43 25.424 312.078 26.2559C311.726 27.0879 311.55 27.6961 311.55 28.0801C311.55 28.5919 311.774 28.8475 312.222 28.8477C312.478 28.8477 312.766 28.7683 313.086 28.6084C313.438 28.4484 313.695 28.3038 313.855 28.1758C314.718 27.5358 315.567 26.7521 316.398 25.8242C317.174 24.959 317.837 24.1901 318.391 23.5195L318.51 23.376C318.542 23.344 318.559 23.3919 318.559 23.5195L318.552 23.6279C318.54 23.7479 318.51 23.9038 318.462 24.0957C318.43 24.3197 318.334 24.5119 318.174 24.6719C317.822 25.1519 317.454 25.6165 317.07 26.0645C316.718 26.4804 316.366 26.8956 316.014 27.3115C315.406 28.0155 314.67 28.6881 313.806 29.3281C312.974 29.9678 312.03 30.288 310.975 30.2881C310.495 30.2881 310.062 30.192 309.678 30C309.326 29.808 309.15 29.456 309.15 28.9443C309.15 28.6565 309.214 28.3362 309.342 27.9844C309.63 27.2484 310.014 26.3519 310.494 25.2959C311.006 24.2399 311.518 23.2156 312.03 22.2236C312.542 21.1998 312.943 20.3675 313.23 19.7275C313.422 19.3439 313.519 19.0721 313.519 18.9121C313.519 18.6241 313.358 18.5598 313.038 18.7197C312.718 18.8797 312.366 19.1037 311.982 19.3916C311.598 19.6796 311.31 19.9045 311.118 20.0645C310.286 20.8323 309.406 21.744 308.479 22.7998C307.583 23.8238 306.75 24.9125 305.982 26.0645C305.247 27.1844 304.67 28.3039 304.254 29.4238C304.222 29.6158 304.014 29.7763 303.63 29.9043L303.348 29.9883C303.072 30.0602 302.814 30.0957 302.574 30.0957L302.397 30.0889C302.073 30.0589 301.929 29.9386 301.965 29.7285L301.998 29.6162C302.734 27.9522 303.486 26.1117 304.254 24.0957C305.054 22.0798 305.95 20.0162 306.942 17.9043C307.678 16.3043 308.494 14.6559 309.39 12.96C310.318 11.2641 311.342 9.64821 312.462 8.1123C313.582 6.54436 314.814 5.16835 316.158 3.98438C317.342 2.96045 318.638 2.12826 320.046 1.48828C321.486 0.816282 323.038 0.480469 324.702 0.480469C325.438 0.480471 326.078 0.639988 326.622 0.959961C327.166 1.24795 327.47 1.77597 327.534 2.54395V2.97559L327.525 3.31152Z" fill="black"/>
<path className="name-path" d="M266.861 30.9121L266.702 30.9004C266.552 30.8764 266.429 30.8157 266.333 30.7197C266.221 30.6359 266.207 30.5643 266.291 30.5049L266.333 30.4805C266.515 30.4473 266.692 30.4049 266.861 30.3545V30.9121ZM272.584 29.4121L272.766 29.2314V29.4238L272.584 29.4121ZM271.842 10.8965C271.818 10.9444 271.757 10.9921 271.661 11.04C271.589 11.0879 271.527 11.1084 271.473 11.1025L271.421 11.0879C271.141 10.9478 270.824 10.6363 270.471 10.1533L270.317 9.93555C269.933 9.29569 269.678 8.76749 269.55 8.35156C269.454 7.96768 269.405 7.61581 269.405 7.2959C269.405 6.46395 269.678 5.82396 270.222 5.37598C270.766 4.89611 271.453 4.56015 272.285 4.36816C273.117 4.14419 273.965 4.01639 274.829 3.98438C275.725 3.92038 276.51 3.8877 277.182 3.8877H280.829C282.237 3.8557 283.534 3.83984 284.718 3.83984H285.678C286.03 3.80787 286.397 3.792 286.781 3.79199C287.645 3.79199 288.542 3.83955 289.47 3.93555C290.398 4.03156 291.246 4.23961 292.014 4.55957C292.782 4.87953 293.373 5.37601 293.789 6.04785C294.429 7.0398 294.749 8.09589 294.749 9.21582C294.749 10.4637 294.381 11.6477 293.646 12.7676C292.942 13.8556 292.045 14.8164 290.957 15.6484C289.869 16.4803 288.765 17.1204 287.646 17.5684C286.59 17.9843 285.406 18.2716 284.094 18.4316C282.814 18.5916 281.662 18.6719 280.638 18.6719H279.678C279.39 18.6399 279.133 18.6082 278.909 18.5762C278.845 18.5761 278.814 18.5441 278.813 18.4805C278.813 18.3525 278.941 18.1761 279.197 17.9521C279.453 17.6962 279.661 17.5842 279.821 17.6162C280.077 17.6482 280.334 17.6641 280.59 17.6641H281.405C282.621 17.6641 283.917 17.5036 285.293 17.1836C286.669 16.8636 287.933 16.2562 289.085 15.3604C290.269 14.4324 291.165 13.0881 291.773 11.3281C291.933 10.9441 292.03 10.5598 292.062 10.1758C292.126 9.75987 292.157 9.35951 292.157 8.97559C292.157 7.88776 291.886 6.9276 291.342 6.0957C290.798 5.26371 290.013 4.78425 288.989 4.65625C288.861 4.62427 288.718 4.60842 288.558 4.6084H288.077C287.469 4.60842 286.797 4.68771 286.062 4.84766C285.358 5.00763 284.83 5.31189 284.478 5.75977C283.678 6.81576 282.91 8.01635 282.174 9.36035C281.438 10.6722 280.733 12.0158 280.062 13.3916C279.39 14.7354 278.75 15.9997 278.142 17.1836C277.982 17.5036 277.677 18.0801 277.229 18.9121C276.782 19.7121 276.285 20.6403 275.741 21.6963C275.197 22.7201 274.685 23.7438 274.205 24.7676C273.725 25.7915 273.342 26.704 273.054 27.5039C272.798 28.3037 272.733 28.8477 272.861 29.1357C272.893 29.1677 272.909 29.2163 272.909 29.2803L272.9 29.3428C272.882 29.3968 272.838 29.4238 272.766 29.4238V29.2314L272.584 29.4121C272.388 29.389 272.193 29.3302 271.997 29.2324C271.741 29.1044 271.437 29.04 271.085 29.04C270.765 29.0401 270.445 29.1203 270.125 29.2803C269.805 29.4083 269.389 29.6481 268.877 30L268.683 30.1289C268.221 30.423 267.71 30.6682 267.149 30.8643C267.085 30.8962 266.989 30.9121 266.861 30.9121V30.3545C267.264 30.2348 267.631 30.0665 267.961 29.8496L268.157 29.7119C268.669 29.2959 269.085 28.7838 269.405 28.1758C270.077 27.056 270.733 25.9362 271.373 24.8164C272.045 23.6646 272.685 22.5122 273.293 21.3604C274.029 19.9524 274.782 18.5437 275.55 17.1357C276.318 15.6959 277.086 14.2721 277.854 12.8643C278.589 11.5523 279.245 10.2882 279.821 9.07227C280.397 7.85627 280.829 6.97564 281.117 6.43164C281.341 6.01573 281.726 5.64807 282.27 5.32812C282.845 4.97615 283.405 4.70371 283.949 4.51172H283.373C283.181 4.47976 282.973 4.46387 282.749 4.46387C281.757 4.46388 280.669 4.52826 279.485 4.65625C278.333 4.75225 277.197 4.91174 276.077 5.13574C274.989 5.35974 274.029 5.66387 273.197 6.04785C272.365 6.43185 271.806 6.89644 271.518 7.44043C271.39 7.72822 271.278 8.01592 271.182 8.30371C271.086 8.5917 271.037 8.87998 271.037 9.16797C271.037 9.90397 271.294 10.432 271.806 10.752C271.837 10.7522 271.853 10.7841 271.854 10.8477L271.842 10.8965Z" fill="black"/>
<path className="name-path" d="M236.863 16.7041C237.695 16.7042 238.271 16.9122 238.591 17.3281C238.911 17.7121 239.071 18.1759 239.071 18.7197C239.071 19.7116 238.767 20.528 238.159 21.168C237.583 21.8079 236.863 22.336 235.999 22.752C235.135 23.1359 234.303 23.4559 233.503 23.7119C233.023 23.8399 232.463 23.9677 231.823 24.0957C231.183 24.2237 230.575 24.2881 229.999 24.2881C229.775 24.864 229.599 25.4238 229.471 25.9678C229.343 26.5118 229.279 27.0081 229.279 27.4561C229.279 28 229.407 28.4478 229.663 28.7998C229.951 29.1518 230.415 29.3281 231.055 29.3281C231.311 29.3281 231.615 29.2964 231.967 29.2324C232.319 29.1684 232.703 29.0723 233.119 28.9443C234.079 28.6243 235.023 28.1122 235.951 27.4082C236.879 26.7042 237.727 25.9523 238.495 25.1523C239.295 24.3203 239.903 23.6319 240.319 23.0879C240.415 23.1838 240.463 23.296 240.463 23.4238C240.463 23.5838 240.351 23.8404 240.127 24.1924C239.487 25.0883 238.655 26.0157 237.631 26.9756C236.607 27.9356 235.471 28.7518 234.223 29.4238C232.975 30.0638 231.679 30.3838 230.335 30.3838C229.023 30.3838 228.111 30.1282 227.599 29.6162C227.087 29.1042 226.831 28.4801 226.831 27.7441C226.831 26.8161 227.071 25.8236 227.551 24.7676C228.063 23.7117 228.543 22.816 228.991 22.0801C229.503 21.3121 230.191 20.5117 231.055 19.6797C231.919 18.8478 232.863 18.1443 233.887 17.5684C234.911 16.9924 235.903 16.7041 236.863 16.7041ZM236.095 17.5195C235.167 17.5196 234.335 17.8722 233.599 18.5762C232.863 19.2481 232.223 20.0319 231.679 20.9277C231.135 21.8237 230.703 22.6241 230.383 23.3281C230.799 23.3601 231.263 23.3601 231.774 23.3281C232.318 23.2641 232.847 23.1521 233.358 22.9922C234.67 22.6082 235.614 21.9999 236.19 21.168C236.798 20.3041 237.102 19.5362 237.103 18.8643C237.103 18.4805 237.023 18.1602 236.863 17.9043C236.703 17.6483 236.447 17.5195 236.095 17.5195Z" fill="black"/>
<path className="name-path" d="M219.848 17.0879C219.795 17.1998 219.559 17.3119 219.14 17.4238C218.596 17.5838 218.019 17.6799 217.411 17.7119C216.835 17.7439 216.291 17.8083 215.779 17.9043C215.299 18.0003 214.948 18.2083 214.724 18.5283C214.532 18.7523 214.259 19.2319 213.907 19.9678C213.555 20.7037 213.171 21.5518 212.755 22.5117C212.371 23.4397 212.035 24.3838 211.747 25.3438C211.459 26.2717 211.284 27.0563 211.22 27.6963V27.8877C211.22 28.1436 211.299 28.3518 211.459 28.5117C211.619 28.6717 211.779 28.752 211.939 28.752C212.355 28.7519 212.884 28.4963 213.523 27.9844C214.195 27.4724 214.883 26.8641 215.587 26.1602C216.291 25.4242 216.899 24.7516 217.411 24.1436C217.635 23.8876 217.827 23.6478 217.987 23.4238C218.179 23.2001 218.291 23.0563 218.323 22.9922C218.387 23.1201 218.419 23.2163 218.419 23.2803C218.419 23.4722 218.355 23.6804 218.228 23.9043C218.132 24.1282 218.02 24.3205 217.892 24.4805C217.284 25.2804 216.548 26.1285 215.684 27.0244C214.82 27.8884 213.891 28.6244 212.899 29.2324C211.939 29.8404 210.947 30.1436 209.923 30.1436C209.603 30.1435 209.331 30.08 209.107 29.9521C208.884 29.8242 208.772 29.5842 208.771 29.2324C208.771 28.7845 208.884 28.2563 209.107 27.6484C209.363 27.0405 209.635 26.4321 209.923 25.8242C210.211 25.2162 210.452 24.7199 210.644 24.3359C210.804 24.0479 211.012 23.6 211.268 22.9922C211.556 22.3523 211.843 21.6962 212.131 21.0244C212.451 20.3204 212.707 19.728 212.899 19.248C213.119 18.7765 213.231 18.5366 213.235 18.5283C212.947 18.8483 212.563 19.2961 212.083 19.8721C211.635 20.448 211.14 21.0564 210.596 21.6963C210.084 22.3042 209.603 22.8799 209.155 23.4238C208.739 23.9678 208.435 24.368 208.243 24.624C208.147 24.752 208.067 24.8164 208.003 24.8164C207.939 24.8161 207.907 24.7358 207.907 24.5762C207.907 24.3202 207.988 24.0804 208.147 23.8564C208.531 23.3765 208.995 22.7999 209.539 22.1279C210.083 21.4239 210.627 20.7196 211.171 20.0156C211.747 19.3116 212.243 18.6875 212.659 18.1436C212.403 18.1436 212.067 18.1604 211.651 18.1924C211.268 18.2244 210.916 18.272 210.596 18.3359C210.276 18.3679 210.1 18.3837 210.067 18.3838C209.907 18.3838 209.923 18.256 210.115 18C210.307 17.7441 210.563 17.4883 210.883 17.2324C211.203 16.9764 211.444 16.8477 211.604 16.8477C211.637 16.8477 211.892 16.8646 212.371 16.8965H213.428C214.068 16.0325 214.691 15.0399 215.299 13.9199C215.939 12.7999 216.563 11.5676 217.171 10.2236C217.427 10.1916 217.859 10.0161 218.467 9.69629C219.107 9.34429 219.603 8.99165 219.955 8.63965C220.115 8.47992 220.243 8.4006 220.339 8.40039C220.531 8.40039 220.531 8.52818 220.339 8.78418L220.142 9.03027C219.914 9.33026 219.595 9.79207 219.188 10.416L218.996 10.7031C218.502 11.4462 217.957 12.3258 217.363 13.3438C216.691 14.4637 216.051 15.6485 215.443 16.8965H219.331C219.683 16.8965 219.859 16.944 219.859 17.04L219.848 17.0879Z" fill="black"/>
<path className="name-path" d="M195.234 16.7041C196.066 16.7041 196.642 16.9122 196.962 17.3281C197.282 17.7121 197.442 18.1758 197.442 18.7197C197.442 19.7117 197.138 20.528 196.53 21.168C195.954 21.808 195.234 22.336 194.37 22.752C193.506 23.136 192.674 23.4559 191.874 23.7119C191.394 23.8399 190.834 23.9677 190.194 24.0957C189.554 24.2237 188.946 24.2881 188.37 24.2881C188.146 24.864 187.97 25.4238 187.842 25.9678C187.714 26.5118 187.65 27.0081 187.65 27.4561C187.65 28 187.778 28.4478 188.034 28.7998C188.322 29.1517 188.786 29.3281 189.426 29.3281C189.682 29.3281 189.986 29.2964 190.338 29.2324C190.69 29.1684 191.074 29.0723 191.49 28.9443C192.45 28.6243 193.394 28.1122 194.322 27.4082C195.25 26.7042 196.098 25.9523 196.866 25.1523C197.666 24.3203 198.274 23.6319 198.69 23.0879C198.786 23.1838 198.834 23.2959 198.834 23.4238C198.834 23.5838 198.722 23.8404 198.498 24.1924C197.858 25.0883 197.026 26.0157 196.002 26.9756C194.978 27.9356 193.842 28.7518 192.594 29.4238C191.346 30.0638 190.05 30.3838 188.706 30.3838C187.394 30.3838 186.482 30.1282 185.97 29.6162C185.458 29.1043 185.202 28.48 185.202 27.7441C185.202 26.8161 185.442 25.8236 185.922 24.7676C186.434 23.7117 186.914 22.816 187.362 22.0801C187.874 21.3121 188.562 20.5117 189.426 19.6797C190.29 18.8478 191.234 18.1443 192.258 17.5684C193.282 16.9924 194.274 16.7041 195.234 16.7041ZM194.466 17.5195C193.538 17.5196 192.706 17.8722 191.97 18.5762C191.234 19.2481 190.594 20.0319 190.05 20.9277C189.506 21.8237 189.074 22.6241 188.754 23.3281C189.17 23.3601 189.634 23.3601 190.146 23.3281C190.69 23.2641 191.219 23.1522 191.73 22.9922C193.042 22.6082 193.987 21.9999 194.562 21.168C195.17 20.3042 195.474 19.5361 195.474 18.8643C195.474 18.4804 195.394 18.1602 195.234 17.9043C195.074 17.6483 194.818 17.5195 194.466 17.5195Z" fill="black"/>
<path className="name-path" d="M184.471 3.92578C184.446 4.02031 184.336 4.15208 184.14 4.32031L184.008 4.4248C183.888 4.51475 183.804 4.55957 183.756 4.55957C182.86 4.59162 182.06 4.92842 181.356 5.56836C180.684 6.20836 180.092 6.94437 179.58 7.77637C179.1 8.57626 178.7 9.31246 178.38 9.98438C178.188 10.3684 177.884 10.9927 177.468 11.8564C177.084 12.6883 176.652 13.6485 176.172 14.7363C175.724 15.7922 175.26 16.8484 174.78 17.9043C174.332 18.9601 173.932 19.8718 173.58 20.6396C172.748 22.5595 171.964 24.3518 171.229 26.0156C170.525 27.6476 169.74 29.184 168.876 30.624C168.012 32.0639 166.94 33.4717 165.66 34.8477C164.86 35.7117 163.852 36.4477 162.636 37.0557C161.388 37.6956 160.204 38.0156 159.084 38.0156C158.092 38.0156 157.148 37.7283 156.252 37.1523C155.356 36.5763 154.684 35.7116 154.236 34.5596C154.076 34.1437 153.98 33.6957 153.948 33.2158C153.9 32.8799 153.87 32.5439 153.858 32.208L153.853 31.8721C153.853 31.4244 153.932 31.2005 154.092 31.2002C154.252 31.2002 154.332 31.328 154.332 31.584L154.337 31.8613C154.382 33.2284 154.764 34.2721 155.484 34.9922C156.22 35.76 157.165 36.1436 158.316 36.1436C159.436 36.1435 160.524 35.8235 161.58 35.1836C162.604 34.5437 163.564 33.7282 164.46 32.7363C165.964 31.1043 167.324 29.248 168.54 27.168C169.788 25.056 170.908 22.8796 171.9 20.6396C172.156 20.0956 172.524 19.2316 173.004 18.0479C173.484 16.832 174.012 15.5202 174.588 14.1123C175.164 12.6723 175.725 11.3756 176.269 10.2236C176.748 9.13586 177.148 8.27174 177.468 7.63184C177.82 6.99184 178.284 6.448 178.86 6C179.436 5.55205 180.3 5.1042 181.452 4.65625C180.94 4.68825 180.46 4.73581 180.012 4.7998C179.564 4.83179 179.212 4.84766 178.956 4.84766C177.74 4.87965 176.524 4.95992 175.309 5.08789C174.093 5.21589 173.004 5.45562 172.044 5.80762C171.084 6.12761 170.396 6.59222 169.98 7.2002C169.693 7.61611 169.548 8.09579 169.548 8.63965C169.548 9.1836 169.693 9.71167 169.98 10.2236C170.268 10.7356 170.636 11.1041 171.084 11.3281C171.148 11.3919 171.179 11.4397 171.18 11.4717L171.165 11.5234C171.135 11.5773 171.06 11.6401 170.94 11.7119L170.841 11.751C170.773 11.7709 170.701 11.7794 170.625 11.7754L170.508 11.7598C170.316 11.6398 170.088 11.4661 169.824 11.2383L169.548 10.9922C169.164 10.6082 168.812 10.208 168.492 9.79199C168.204 9.37612 168.012 9.02428 167.916 8.73633C167.788 8.35233 167.724 7.96798 167.724 7.58398C167.724 6.81599 167.996 6.19191 168.54 5.71191C169.116 5.23195 169.852 4.8644 170.748 4.6084C171.644 4.35242 172.604 4.17608 173.628 4.08008C174.684 3.95208 175.692 3.8877 176.652 3.8877C177.644 3.8557 178.492 3.83984 179.196 3.83984H184.38L184.422 3.84277C184.458 3.84872 184.476 3.86381 184.477 3.8877L184.471 3.92578Z" fill="black"/>
<path className="name-path" d="M132.545 17.5195C132.033 17.5196 131.473 17.7118 130.865 18.0957C130.289 18.4477 129.826 18.8003 129.474 19.1523C129.09 19.5043 128.625 20.0641 128.081 20.832C127.569 21.568 127.057 22.3843 126.545 23.2803C126.033 24.1761 125.601 25.0402 125.249 25.8721C124.897 26.7038 124.722 27.3758 124.722 27.8877C124.722 28.2717 124.849 28.4639 125.105 28.4639C125.489 28.4638 126.018 28.1923 126.689 27.6484C127.393 27.0725 128.145 26.3681 128.945 25.5361C129.745 24.6721 130.497 23.7757 131.201 22.8477C131.905 21.8877 132.482 21.0238 132.93 20.2559C133.41 19.456 133.649 18.8476 133.649 18.4316C133.649 18.0799 133.537 17.8399 133.313 17.7119C133.121 17.5839 132.865 17.5195 132.545 17.5195ZM138.059 17.1777C138.027 17.3738 137.886 17.4716 137.634 17.4717C137.314 17.4717 136.994 17.68 136.674 18.0957L136.448 18.3721C136.238 18.636 136.073 18.8637 135.953 19.0557C135.729 19.4077 135.377 20 134.897 20.832C134.417 21.664 133.921 22.5764 133.409 23.5684C132.929 24.5282 132.513 25.424 132.161 26.2559C131.809 27.0879 131.634 27.6961 131.634 28.0801C131.634 28.528 131.858 28.752 132.306 28.752C132.786 28.7519 133.33 28.528 133.938 28.0801C134.545 27.6321 135.154 27.0882 135.762 26.4482C136.402 25.7764 136.977 25.1203 137.489 24.4805C138.033 23.8087 138.465 23.2805 138.785 22.8965C138.977 23.0885 138.961 23.36 138.737 23.7119C138.545 24.0319 138.369 24.2885 138.209 24.4805C137.569 25.3123 136.833 26.1764 136.001 27.0723C135.169 27.9361 134.257 28.6724 133.266 29.2803C132.306 29.8563 131.313 30.1436 130.289 30.1436C129.969 30.1435 129.698 30.08 129.474 29.9521C129.25 29.8242 129.138 29.5842 129.138 29.2324C129.138 28.7845 129.25 28.2722 129.474 27.6963C129.698 27.1203 129.953 26.5596 130.241 26.0156C130.529 25.4397 130.786 24.976 131.01 24.624C129.89 25.808 128.722 26.9284 127.506 27.9844C126.898 28.4964 126.225 28.9758 125.489 29.4238C124.753 29.8718 123.97 30.0956 123.138 30.0957C122.818 30.0957 122.594 29.9996 122.466 29.8076C122.338 29.5837 122.273 29.328 122.273 29.04C122.273 28.8801 122.289 28.7681 122.321 28.7041C122.481 27.4562 122.882 26.1603 123.521 24.8164C124.161 23.4726 124.945 22.2083 125.873 21.0244C126.801 19.8404 127.745 18.8796 128.705 18.1436C129.793 17.3116 130.994 16.8965 132.306 16.8965H137.825L137.931 16.9082C138.02 16.9323 138.065 16.9921 138.065 17.0879L138.059 17.1777Z" fill="black"/>
<path className="name-path" d="M113.808 17.2324C114.095 17.2325 114.32 17.4406 114.479 17.8564C114.671 18.24 114.783 18.5437 114.815 18.7676C113.727 19.5676 112.511 20.4482 111.167 21.4082C109.823 22.3361 108.511 23.312 107.231 24.3359C106.623 24.7839 105.919 25.3763 105.119 26.1123C104.351 26.8162 103.695 27.3919 103.151 27.8398C104.047 27.3919 104.879 27.168 105.647 27.168C106.671 27.168 107.584 27.5038 108.384 28.1758C109.216 28.8478 110.111 29.6482 111.071 30.5762C112.031 31.5362 112.991 32.3683 113.951 33.0723C114.911 33.7763 115.727 34.1279 116.399 34.1279C116.623 34.0959 116.847 34.0483 117.071 33.9844C117.295 33.9204 117.487 33.8243 117.647 33.6963C117.872 33.5002 117.997 33.2793 118.025 33.0342L118.031 32.9277C118.031 32.5759 117.887 32.208 117.6 31.8242C117.383 31.56 117.185 31.3587 117.005 31.2207L116.831 31.1035C116.799 31.0716 116.783 31.0397 116.783 31.0078C116.783 30.9119 116.848 30.8315 116.976 30.7676C117.103 30.7038 117.232 30.7037 117.359 30.7676C117.775 30.9915 118.111 31.3117 118.367 31.7275C118.623 32.1435 118.751 32.6081 118.751 33.1201L118.744 33.3105C118.709 33.7514 118.551 34.1677 118.271 34.5596C117.983 34.9756 117.583 35.3282 117.071 35.6162C116.559 35.9361 116.015 36.0957 115.439 36.0957C114.959 36.0957 114.479 35.9521 113.999 35.6641C113.519 35.408 112.912 34.9116 112.176 34.1758C111.472 33.4398 110.479 32.3521 109.199 30.9121C108.495 30.0802 107.824 29.3441 107.184 28.7041C106.576 28.0642 105.824 27.7442 104.928 27.7441C104.224 27.7441 103.535 27.968 102.863 28.416C102.191 28.832 101.759 29.3919 101.567 30.0957C101.535 30.2876 101.488 30.4641 101.424 30.624L101.315 30.8643C101.276 30.944 101.231 31.0237 101.184 31.1035L101.145 31.1602C101.047 31.2827 100.899 31.3438 100.703 31.3438L100.586 31.332C100.472 31.308 100.367 31.2481 100.271 31.1523C100.111 31.0243 100.031 30.848 100.031 30.624C100.031 30.5331 100.089 30.3704 100.204 30.1357L100.224 30.0957C100.384 29.8077 100.688 29.4241 101.136 28.9443C101.584 28.4323 102.079 27.8875 102.623 27.3115C103.167 26.7356 103.679 26.2075 104.159 25.7275C104.639 25.2156 105.024 24.848 105.312 24.624C106.623 23.5042 107.839 22.4321 108.959 21.4082C110.111 20.3523 111.359 19.2803 112.703 18.1924C112.287 18.1924 111.711 18.2082 110.976 18.2402C110.24 18.2722 109.455 18.3198 108.623 18.3838C107.823 18.4478 107.12 18.5439 106.512 18.6719C105.904 18.7999 105.519 18.9762 105.359 19.2002L105.275 19.3008C105.079 19.5214 104.884 19.6318 104.688 19.6318L104.604 19.623C104.532 19.6051 104.495 19.5602 104.495 19.4883C104.495 19.4026 104.56 19.292 104.688 19.1553L104.735 19.1035C104.951 18.8636 105.131 18.633 105.275 18.4111L105.407 18.1924C105.567 17.8724 105.728 17.5683 105.888 17.2803C106.24 17.3123 106.591 17.344 106.943 17.376H108.048C109.008 17.376 109.984 17.3601 110.976 17.3281C112 17.2641 112.944 17.2324 113.808 17.2324Z" fill="black"/>
<path className="name-path" d="M89.6621 16.7041C90.4941 16.7041 91.0706 16.9121 91.3906 17.3281C91.7104 17.712 91.8701 18.176 91.8701 18.7197C91.8701 19.7117 91.566 20.528 90.958 21.168C90.382 21.8079 89.6618 22.336 88.7979 22.752C87.934 23.1359 87.1017 23.4559 86.3018 23.7119C85.8219 23.8399 85.2619 23.9677 84.6221 24.0957C83.9821 24.2237 83.3738 24.2881 82.7979 24.2881C82.5739 24.8639 82.3985 25.4239 82.2705 25.9678C82.1425 26.5118 82.0781 27.0081 82.0781 27.4561C82.0781 27.9999 82.2061 28.4479 82.4619 28.7998C82.7499 29.1518 83.2145 29.3281 83.8545 29.3281C84.1104 29.3281 84.4147 29.2964 84.7666 29.2324C85.1184 29.1684 85.5022 29.0722 85.918 28.9443C86.8779 28.6244 87.8221 28.1121 88.75 27.4082C89.6779 26.7043 90.526 25.9522 91.2939 25.1523C92.0939 24.3203 92.7022 23.6319 93.1182 23.0879C93.2141 23.1838 93.2627 23.2959 93.2627 23.4238C93.2627 23.5838 93.1498 23.8404 92.9258 24.1924C92.2859 25.0881 91.4543 26.0159 90.4307 26.9756C89.4067 27.9355 88.2704 28.7519 87.0225 29.4238C85.7745 30.0638 84.4778 30.3838 83.1338 30.3838C81.8222 30.3837 80.9104 30.128 80.3984 29.6162C79.8865 29.1042 79.6299 28.4801 79.6299 27.7441C79.6299 26.8161 79.8706 25.8236 80.3506 24.7676C80.8625 23.7119 81.3421 22.8159 81.79 22.0801C82.302 21.3121 82.9905 20.5117 83.8545 19.6797C84.7184 18.8478 85.6626 18.1443 86.6865 17.5684C87.7105 16.9924 88.7022 16.7041 89.6621 16.7041ZM88.8945 17.5195C87.9665 17.5195 87.1344 17.8722 86.3984 18.5762C85.6625 19.2481 85.0225 20.0319 84.4785 20.9277C83.9345 21.8237 83.5026 22.6241 83.1826 23.3281C83.5985 23.3601 84.0624 23.3601 84.5742 23.3281C85.1182 23.2641 85.6462 23.1522 86.1582 22.9922C87.4702 22.6082 88.4142 22 88.9902 21.168C89.5981 20.3041 89.9023 19.5362 89.9023 18.8643C89.9023 18.4803 89.822 18.1603 89.6621 17.9043C89.5022 17.6484 89.2464 17.5196 88.8945 17.5195ZM86.9258 13.3438L86.8203 13.3398L86.9258 13.1045V13.3438ZM87.0225 11.04C87.1824 11.136 87.4064 11.248 87.6943 11.376C88.0143 11.472 88.3026 11.5522 88.5586 11.6162C88.8456 11.68 88.9895 11.7278 88.9902 11.7598C88.9582 11.8878 88.8621 12.0482 88.7021 12.2402C88.3163 12.5463 87.9874 12.7871 87.7178 12.9658L87.0225 13.3291C86.9862 13.338 86.9539 13.3438 86.9258 13.3438V13.1045L86.8203 13.3398C86.1919 13.3046 85.6353 12.9548 85.1504 12.2881C85.1504 12.216 85.2583 12.0987 85.4746 11.9365L85.7266 11.7598C86.142 11.4722 86.4139 11.2966 86.542 11.2324C86.5794 11.211 86.6156 11.1916 86.6494 11.1738L86.6729 11.1797L86.749 11.125C86.8682 11.0692 86.9591 11.04 87.0225 11.04ZM92.4941 13.3438L92.3887 13.3398L92.4767 13.3291L92.4941 13.3438ZM92.5898 11.04C92.7498 11.136 92.9747 11.248 93.2627 11.376C93.5824 11.4719 93.8701 11.5522 94.126 11.6162C94.4133 11.6801 94.5579 11.7278 94.5586 11.7598C94.5266 11.8878 94.4305 12.0482 94.2705 12.2402L93.9385 12.499C93.8527 12.5645 93.7693 12.6248 93.6904 12.6826C93.6904 12.823 93.7071 12.5602 93.6904 12.6826L92.5898 13.3291C92.5538 13.3379 92.5221 13.3438 92.4941 13.3438L92.4767 13.3291L92.3887 13.3398C91.7601 13.3047 91.2028 12.955 90.7178 12.2881C90.7178 12.1921 90.91 12.0157 91.2939 11.7598C91.7099 11.4718 91.9823 11.2965 92.1104 11.2324C92.1476 11.2112 92.1831 11.1916 92.2168 11.1738L92.2402 11.1797L92.3164 11.125C92.4356 11.0692 92.5264 11.0402 92.5898 11.04ZM86.0381 12.2881C86.2734 12.2881 86.2479 12.1977 86.2734 12.2881H86.0381Z" fill="black"/>
<path className="name-path" d="M69.6035 9.93555C69.8915 9.93555 70.1639 10.0158 70.4199 10.1758L70.5205 10.2402C70.7375 10.4012 70.8317 10.6363 70.8037 10.9443L70.708 12.2881C70.708 12.384 70.6436 12.4316 70.5156 12.4316H70.4678V12.3838C70.4677 12.0477 70.3574 11.8099 70.1367 11.6699L70.0361 11.6162C69.7801 11.4562 69.5236 11.376 69.2676 11.376C68.1797 11.376 67.2038 11.7604 66.3398 12.5283C65.5079 13.2643 64.7718 14.2243 64.1318 15.4082C63.4919 16.5922 62.948 17.8404 62.5 19.1523C62.052 20.4322 61.6835 21.6162 61.3955 22.7041C61.6195 22.5121 62.0197 22.1119 62.5957 21.5039C63.2037 20.8959 63.908 20.2401 64.708 19.5361C65.508 18.8321 66.3243 18.2239 67.1562 17.7119C67.9881 17.2 68.756 16.9443 69.46 16.9443C69.8757 16.9444 70.1156 17.1359 70.1797 17.5195C70.2757 17.8715 70.2915 18.2083 70.2275 18.5283C70.0675 19.7122 69.6682 20.9923 69.0283 22.3682C68.3884 23.744 67.5561 25.0558 66.5322 26.3037C65.5402 27.5197 64.4199 28.5123 63.1719 29.2803C61.956 30.0482 60.6759 30.4316 59.332 30.4316C59.1721 30.4316 58.948 30.4158 58.6602 30.3838C58.4042 30.3838 58.2437 30.3521 58.1797 30.2881C57.5077 32.304 56.6439 34.3685 55.5879 36.4805C54.5319 38.5923 53.2678 40.4965 51.7959 42.1924C50.2919 43.9203 48.5157 45.2161 46.4678 46.0801C45.3799 46.56 44.18 46.7998 42.8682 46.7998C41.6522 46.7998 40.4842 46.5115 39.3643 45.9355C38.2123 45.3915 37.3643 44.5436 36.8203 43.3916C36.6284 42.9756 36.4995 42.5278 36.4355 42.0479C36.3876 41.7119 36.3577 41.376 36.3457 41.04L36.3398 40.7041V40.1758C36.3399 39.9839 36.3576 39.8009 36.3936 39.627L36.4355 39.4561C36.4995 39.2641 36.66 39.168 36.916 39.168C37.0118 39.168 37.0594 39.1999 37.0596 39.2637L37.0479 39.5518C37.0399 39.6478 37.0277 39.7438 37.0117 39.8398L36.9697 39.9873C36.9338 40.1372 36.916 40.296 36.916 40.4639L36.9209 40.7041C36.9709 42.0583 37.4485 43.0985 38.3555 43.8242C39.2835 44.5922 40.4524 44.9756 41.8604 44.9756C42.4362 44.9756 43.028 44.9121 43.6357 44.7842C44.2437 44.6562 44.8203 44.4799 45.3643 44.2559C47.3799 43.3919 49.1397 42.1761 50.6436 40.6084C52.1475 39.0404 53.4601 37.2642 54.5801 35.2803C55.7001 33.2963 56.6917 31.2636 57.5557 29.1836C58.4836 26.9117 59.3643 24.6718 60.1963 22.4639C61.0603 20.224 62.0202 18.0316 63.0762 15.8877C64.0681 13.9039 65.1242 12.4158 66.2441 11.4238C67.3639 10.4321 68.4837 9.93565 69.6035 9.93555ZM67.4922 18.5762C67.2042 18.5762 66.8197 18.7516 66.3398 19.1035C65.8598 19.4555 65.3477 19.8884 64.8037 20.4004C64.2919 20.8802 63.8121 21.36 63.3643 21.8398C62.9165 22.2876 62.5963 22.6237 62.4043 22.8477C62.0843 23.2317 61.6514 23.7923 61.1074 24.5283C60.5636 25.2642 60.0839 26.0163 59.668 26.7842C59.252 27.5201 59.0439 28.1443 59.0439 28.6562C59.044 29.296 59.3799 29.6162 60.0518 29.6162C60.5317 29.6162 61.0757 29.4239 61.6836 29.04C62.3236 28.624 62.804 28.2555 63.124 27.9355C63.508 27.5835 63.9559 27.0395 64.4678 26.3037C65.0117 25.5358 65.5398 24.7036 66.0518 23.8076C66.5957 22.9117 67.0435 22.0477 67.3955 21.2158C67.7475 20.3839 67.9238 19.7122 67.9238 19.2002C67.9238 19.0402 67.8921 18.8956 67.8281 18.7676C67.7641 18.6398 67.6519 18.5763 67.4922 18.5762Z" fill="black"/>
<path className="name-path" d="M45.1406 16.6562C45.6525 16.6562 46.1004 16.8 46.4844 17.0879C46.8684 17.3439 47.0605 17.8243 47.0605 18.5283L47.0469 18.9375C46.9839 19.8965 46.7003 20.8797 46.1963 21.8877C45.6523 23.0077 45.0768 24.0003 44.4688 24.8643C44.1808 25.2482 43.8924 25.6158 43.6045 25.9678C43.3165 26.2877 42.9965 26.6236 42.6445 26.9756C43.8285 26.9756 44.9172 26.6398 45.9092 25.9678C46.901 25.2638 47.7651 24.4157 48.501 23.4238L48.5967 23.3281C48.6927 23.3281 48.7412 23.4242 48.7412 23.6162C48.7412 23.8401 48.6768 24.0483 48.5488 24.2402L48.3008 24.5713C47.7058 25.3343 46.9884 26.0237 46.1484 26.6396C45.1885 27.3116 44.1007 27.6484 42.8848 27.6484H42.501C42.3731 27.6484 42.2451 27.6316 42.1172 27.5996C40.3252 29.2636 38.3084 30.0957 36.0684 30.0957C35.5565 30.0957 35.0927 29.9996 34.6768 29.8076C34.2929 29.5836 34.1006 29.1199 34.1006 28.416C34.1006 27.296 34.3888 26.1757 34.9648 25.0557C35.5408 23.9038 36.1333 22.8961 36.7412 22.0322C37.2852 21.2963 37.8925 20.6077 38.5645 19.9678C39.2683 19.2959 40.0205 18.7202 40.8203 18.2402C41.3323 17.9202 42.0208 17.5844 42.8848 17.2324C43.7807 16.8484 44.5326 16.6563 45.1406 16.6562ZM43.9883 17.4238C43.5724 17.424 43.0608 17.6004 42.4531 17.9521C41.8772 18.3041 41.4452 18.6242 41.1572 18.9121C40.0693 20.032 39.1569 21.2477 38.4209 22.5596C38.0049 23.2956 37.5571 24.1603 37.0771 25.1523C36.5972 26.1442 36.3565 27.0558 36.3564 27.8877V28.2725C36.3884 28.3684 36.4212 28.4805 36.4531 28.6084C36.5812 29.056 36.8688 29.2802 37.3164 29.2803C37.7644 29.2803 38.2448 29.1198 38.7568 28.7998C39.3008 28.4798 39.7169 28.1757 40.0049 27.8877C40.5488 27.3438 41.0452 26.7681 41.4932 26.1602C41.9411 25.5202 42.3572 24.8802 42.7412 24.2402C43.1892 23.4722 43.637 22.5599 44.085 21.5039C44.4769 20.5799 44.6971 19.7049 44.7461 18.8789L44.7568 18.5283C44.7568 17.7923 44.5003 17.4238 43.9883 17.4238Z" fill="black"/>
<path className="name-path" d="M19.9238 3.64844C20.7238 3.64844 21.4767 3.71184 22.1807 3.83984C22.8844 3.93585 23.6041 4.1599 24.3398 4.51172C24.9798 4.79972 25.492 5.16822 25.876 5.61621C26.2599 6.03212 26.4521 6.5118 26.4521 7.05566V7.2959C26.4521 7.3919 26.4363 7.47213 26.4043 7.53613C26.2763 8.04803 25.972 8.63969 25.4922 9.31152C25.0442 9.95152 24.6925 10.6241 24.4365 11.3281C24.4045 11.4561 24.2282 11.5681 23.9082 11.6641L23.7041 11.6943C23.5641 11.7043 23.4987 11.6764 23.5088 11.6113L23.5244 11.5684C23.7484 11.2045 23.9228 10.7667 24.0488 10.2559L24.1006 10.0322C24.2606 9.42423 24.3398 8.816 24.3398 8.20801C24.3398 7.76001 24.2923 7.34396 24.1963 6.95996C24.1323 6.54413 24.0044 6.19223 23.8125 5.9043C23.4925 5.3283 22.9962 4.9281 22.3242 4.7041C21.6522 4.4801 20.9321 4.36816 20.1641 4.36816C19.4281 4.36818 18.692 4.44841 17.9561 4.6084C17.2202 4.76838 16.5801 4.94376 16.0361 5.13574C14.1801 5.80774 12.404 6.86372 10.708 8.30371C9.20401 9.61571 7.85978 11.1363 6.67578 12.8643C5.52391 14.5921 4.61238 16.3685 3.94043 18.1924C3.26852 20.0162 2.93264 21.76 2.93262 23.4238C2.93262 25.1198 3.30014 26.4641 4.03613 27.4561C4.77211 28.448 5.73206 29.1524 6.91602 29.5684C8.0999 29.9843 9.38001 30.1923 10.7559 30.1924C11.9719 30.1924 13.1724 30.0636 14.3564 29.8076C15.5723 29.5516 16.6761 29.2316 17.668 28.8477C19.364 28.2077 20.8845 27.4241 22.2285 26.4961C23.4325 25.6841 24.5632 24.664 25.6201 23.4355L26.0684 22.8965C26.2284 22.7365 26.3403 22.6562 26.4043 22.6562C26.5002 22.6563 26.5478 22.7199 26.5479 22.8477L26.542 22.9463C26.514 23.1808 26.388 23.4518 26.1641 23.7598L25.749 24.3008C24.7656 25.5362 23.6717 26.5881 22.4678 27.4561C21.092 28.4479 19.6205 29.2644 18.0527 29.9043C16.9968 30.3203 15.7644 30.672 14.3564 30.96C12.9806 31.2479 11.5885 31.3916 10.1807 31.3916C8.48466 31.3916 6.85218 31.136 5.28418 30.624C3.7482 30.144 2.50003 29.3278 1.54004 28.1758C0.580167 27.0238 0.100586 25.4714 0.100586 23.5195C0.100646 21.4397 0.499866 19.4077 1.2998 17.4238C2.0998 15.4398 3.1726 13.6003 4.5166 11.9043C5.86056 10.1764 7.36438 8.68841 9.02832 7.44043C10.5003 6.32044 12.1962 5.4081 14.1162 4.7041C16.0681 4.00015 18.004 3.64849 19.9238 3.64844Z" fill="black"/>
</svg>
