<svg width="26" height="23" viewBox="0 0 26 23" fill="none" xmlns="http://www.w3.org/2000/svg">
<g filter="url(#filter0_d_2_12)">
<path d="M12.6053 14.144C12.2853 14.144 12.0133 14.08 11.7893 13.952C11.5653 13.824 11.4533 13.584 11.4533 13.232C11.4533 12.784 11.5653 12.272 11.7893 11.696C12.0133 11.12 12.2693 10.56 12.5573 10.016C12.8453 9.44 13.1013 8.976 13.3253 8.624C12.2053 9.808 11.0373 10.928 9.82131 11.984C9.21331 12.496 8.54131 12.976 7.80531 13.424C7.06931 13.872 6.28531 14.096 5.45331 14.096C5.13331 14.096 4.90931 14 4.78131 13.808C4.65331 13.584 4.58931 13.328 4.58931 13.04C4.58931 12.88 4.60531 12.768 4.63731 12.704C4.79731 11.456 5.19731 10.16 5.83731 8.816C6.47731 7.472 7.26131 6.208 8.18931 5.024C9.11731 3.84 10.0613 2.88 11.0213 2.144C12.1093 1.312 13.3093 0.896 14.6213 0.896H20.1413C20.3013 0.896 20.3813 0.96 20.3813 1.088C20.3813 1.344 20.2373 1.472 19.9493 1.472C19.6293 1.472 19.3093 1.68 18.9893 2.096C18.6693 2.48 18.4293 2.8 18.2693 3.056C18.0453 3.408 17.6933 4 17.2133 4.832C16.7333 5.664 16.2373 6.576 15.7253 7.568C15.2453 8.528 14.8293 9.424 14.4773 10.256C14.1253 11.088 13.9493 11.696 13.9493 12.08C13.9493 12.528 14.1733 12.752 14.6213 12.752C15.1013 12.752 15.6453 12.528 16.2533 12.08C16.8613 11.632 17.4693 11.088 18.0773 10.448C18.7173 9.776 19.2933 9.12 19.8053 8.48C20.3493 7.808 20.7813 7.28 21.1013 6.896C21.2933 7.088 21.2773 7.36 21.0533 7.712C20.8613 8.032 20.6853 8.288 20.5253 8.48C19.8853 9.312 19.1493 10.176 18.3173 11.072C17.4853 11.936 16.5733 12.672 15.5813 13.28C14.6213 13.856 13.6293 14.144 12.6053 14.144ZM7.42131 12.464C7.80531 12.464 8.33331 12.192 9.00531 11.648C9.70931 11.072 10.4613 10.368 11.2613 9.536C12.0613 8.672 12.8133 7.776 13.5173 6.848C14.2213 5.888 14.7973 5.024 15.2453 4.256C15.7253 3.456 15.9653 2.848 15.9653 2.432C15.9653 2.08 15.8533 1.84 15.6293 1.712C15.4373 1.584 15.1813 1.52 14.8613 1.52C14.3493 1.52 13.7893 1.712 13.1813 2.096C12.6053 2.448 12.1413 2.8 11.7893 3.152C11.4053 3.504 10.9413 4.064 10.3973 4.832C9.88531 5.568 9.37331 6.384 8.86131 7.28C8.34931 8.176 7.91731 9.04 7.56531 9.872C7.21331 10.704 7.03731 11.376 7.03731 11.888C7.03731 12.272 7.16531 12.464 7.42131 12.464Z" fill="black"/>
</g>
<defs>
<filter id="filter0_d_2_12" x="0.58931" y="0.895996" width="24.8" height="21.248" filterUnits="userSpaceOnUse" color-interpolation-filters="sRGB">
<feFlood flood-opacity="0" result="BackgroundImageFix"/>
<feColorMatrix in="SourceAlpha" type="matrix" values="0 0 0 0 0 0 0 0 0 0 0 0 0 0 0 0 0 0 127 0" result="hardAlpha"/>
<feOffset dy="4"/>
<feGaussianBlur stdDeviation="2"/>
<feComposite in2="hardAlpha" operator="out"/>
<feColorMatrix type="matrix" values="0 0 0 0 0 0 0 0 0 0 0 0 0 0 0 0 0 0 0.25 0"/>
<feBlend mode="normal" in2="BackgroundImageFix" result="effect1_dropShadow_2_12"/>
<feBlend mode="normal" in="SourceGraphic" in2="effect1_dropShadow_2_12" result="shape"/>
</filter>
</defs>
</svg>
