<svg width="35" height="37" viewBox="0 0 35 37" fill="none" xmlns="http://www.w3.org/2000/svg">
<g filter="url(#filter0_d_2_2)">
<path d="M14.2478 28.392C12.5518 28.392 10.9198 28.136 9.35175 27.624C7.81575 27.144 6.56775 26.328 5.60775 25.176C4.64775 24.024 4.16775 22.472 4.16775 20.52C4.16775 18.44 4.56775 16.408 5.36775 14.424C6.16775 12.44 7.23975 10.6 8.58375 8.904C9.92775 7.176 11.4318 5.688 13.0958 4.44C14.5678 3.32 16.2638 2.408 18.1838 1.704C20.1358 0.999999 22.0718 0.647999 23.9918 0.647999C24.7918 0.647999 25.5438 0.711999 26.2478 0.839999C26.9518 0.935998 27.6718 1.16 28.4078 1.512C29.0478 1.8 29.5598 2.168 29.9438 2.616C30.3278 3.032 30.5198 3.512 30.5198 4.056C30.5198 4.12 30.5198 4.2 30.5198 4.296C30.5198 4.392 30.5038 4.472 30.4718 4.536C30.3438 5.048 30.0398 5.64 29.5598 6.312C29.1118 6.952 28.7598 7.624 28.5038 8.328C28.4718 8.456 28.2958 8.568 27.9758 8.664C27.6558 8.728 27.5278 8.696 27.5918 8.568C27.8478 8.152 28.0398 7.64 28.1678 7.032C28.3278 6.424 28.4078 5.816 28.4078 5.208C28.4078 4.76 28.3598 4.344 28.2638 3.96C28.1998 3.544 28.0718 3.192 27.8798 2.904C27.5598 2.328 27.0638 1.928 26.3918 1.704C25.7198 1.48 24.9998 1.368 24.2318 1.368C23.4958 1.368 22.7598 1.448 22.0238 1.608C21.2878 1.768 20.6478 1.944 20.1038 2.136C18.2478 2.808 16.4718 3.864 14.7758 5.304C13.2718 6.616 11.9278 8.136 10.7438 9.864C9.59175 11.592 8.67975 13.368 8.00775 15.192C7.33575 17.016 6.99975 18.76 6.99975 20.424C6.99975 22.12 7.36775 23.464 8.10375 24.456C8.83975 25.448 9.79975 26.152 10.9838 26.568C12.1678 26.984 13.4478 27.192 14.8238 27.192C16.0398 27.192 17.2398 27.064 18.4238 26.808C19.6398 26.552 20.7438 26.232 21.7358 25.848C23.4318 25.208 24.9518 24.424 26.2958 23.496C27.6718 22.568 28.9518 21.368 30.1358 19.896C30.2958 19.736 30.4078 19.656 30.4718 19.656C30.5678 19.656 30.6158 19.72 30.6158 19.848C30.6158 20.104 30.4878 20.408 30.2318 20.76C29.1438 22.232 27.9118 23.464 26.5358 24.456C25.1598 25.448 23.6878 26.264 22.1198 26.904C21.0638 27.32 19.8318 27.672 18.4238 27.96C17.0478 28.248 15.6558 28.392 14.2478 28.392Z" fill="black"/>
</g>
<defs>
<filter id="filter0_d_2_2" x="0.167747" y="0.647995" width="34.448" height="35.744" filterUnits="userSpaceOnUse" color-interpolation-filters="sRGB">
<feFlood flood-opacity="0" result="BackgroundImageFix"/>
<feColorMatrix in="SourceAlpha" type="matrix" values="0 0 0 0 0 0 0 0 0 0 0 0 0 0 0 0 0 0 127 0" result="hardAlpha"/>
<feOffset dy="4"/>
<feGaussianBlur stdDeviation="2"/>
<feComposite in2="hardAlpha" operator="out"/>
<feColorMatrix type="matrix" values="0 0 0 0 0 0 0 0 0 0 0 0 0 0 0 0 0 0 0.25 0"/>
<feBlend mode="normal" in2="BackgroundImageFix" result="effect1_dropShadow_2_2"/>
<feBlend mode="normal" in="SourceGraphic" in2="effect1_dropShadow_2_2" result="shape"/>
</filter>
</defs>
</svg>
