<svg width="24" height="23" viewBox="0 0 24 23" fill="none" xmlns="http://www.w3.org/2000/svg">
<g filter="url(#filter0_d_2_4)">
<path d="M6.54844 14.096C6.03644 14.096 5.57244 14 5.15644 13.808C4.77244 13.584 4.58044 13.12 4.58044 12.416C4.58044 11.296 4.86844 10.176 5.44444 9.056C6.02044 7.904 6.61244 6.896 7.22044 6.032C7.76444 5.296 8.37244 4.608 9.04444 3.968C9.74844 3.296 10.5004 2.72 11.3004 2.24C11.8124 1.92 12.5004 1.584 13.3644 1.232C14.2604 0.847999 15.0124 0.655999 15.6204 0.655999C16.1324 0.655999 16.5804 0.799999 16.9644 1.088C17.3484 1.344 17.5404 1.824 17.5404 2.528C17.5404 3.616 17.2524 4.736 16.6764 5.888C16.1324 7.008 15.5564 8 14.9484 8.864C14.6604 9.248 14.3724 9.616 14.0844 9.968C13.7964 10.288 13.4764 10.624 13.1244 10.976C14.3084 10.976 15.3964 10.64 16.3884 9.968C17.3804 9.264 18.2444 8.416 18.9804 7.424L19.0764 7.328C19.1724 7.328 19.2204 7.424 19.2204 7.616C19.2204 7.84 19.1564 8.048 19.0284 8.24C18.3884 9.136 17.5884 9.936 16.6284 10.64C15.6684 11.312 14.5804 11.648 13.3644 11.648C13.2364 11.648 13.1084 11.648 12.9804 11.648C12.8524 11.648 12.7244 11.632 12.5964 11.6C10.8044 13.264 8.78844 14.096 6.54844 14.096ZM7.79644 13.28C8.24444 13.28 8.72444 13.12 9.23644 12.8C9.78044 12.48 10.1964 12.176 10.4844 11.888C11.0284 11.344 11.5244 10.768 11.9724 10.16C12.4204 9.52 12.8364 8.88 13.2204 8.24C13.6684 7.472 14.1164 6.56 14.5644 5.504C15.0124 4.448 15.2364 3.456 15.2364 2.528C15.2364 1.792 14.9804 1.424 14.4684 1.424C14.0524 1.424 13.5404 1.6 12.9324 1.952C12.3564 2.304 11.9244 2.624 11.6364 2.912C10.5484 4.032 9.63644 5.248 8.90044 6.56C8.48444 7.296 8.03644 8.16 7.55644 9.152C7.07644 10.144 6.83644 11.056 6.83644 11.888C6.83644 12.016 6.83644 12.144 6.83644 12.272C6.86844 12.368 6.90044 12.48 6.93244 12.608C7.06044 13.056 7.34844 13.28 7.79644 13.28Z" fill="black"/>
</g>
<defs>
<filter id="filter0_d_2_4" x="0.580437" y="0.656006" width="22.64" height="21.44" filterUnits="userSpaceOnUse" color-interpolation-filters="sRGB">
<feFlood flood-opacity="0" result="BackgroundImageFix"/>
<feColorMatrix in="SourceAlpha" type="matrix" values="0 0 0 0 0 0 0 0 0 0 0 0 0 0 0 0 0 0 127 0" result="hardAlpha"/>
<feOffset dy="4"/>
<feGaussianBlur stdDeviation="2"/>
<feComposite in2="hardAlpha" operator="out"/>
<feColorMatrix type="matrix" values="0 0 0 0 0 0 0 0 0 0 0 0 0 0 0 0 0 0 0.25 0"/>
<feBlend mode="normal" in2="BackgroundImageFix" result="effect1_dropShadow_2_4"/>
<feBlend mode="normal" in="SourceGraphic" in2="effect1_dropShadow_2_4" result="shape"/>
</filter>
</defs>
</svg>
