<svg width="43" height="46" viewBox="0 0 43 46" fill="none" xmlns="http://www.w3.org/2000/svg">
<g filter="url(#filter0_d_2_6)">
<path d="M10.7988 37.8C9.58281 37.8 8.41481 37.512 7.29481 36.936C6.14281 36.392 5.29481 35.544 4.75081 34.392C4.55881 33.976 4.43081 33.528 4.36681 33.048C4.30281 32.6 4.27081 32.152 4.27081 31.704V31.176C4.27081 30.92 4.30281 30.68 4.36681 30.456C4.43081 30.264 4.59081 30.168 4.84681 30.168C4.94281 30.168 4.99081 30.2 4.99081 30.264C4.99081 30.456 4.97481 30.648 4.94281 30.84C4.87881 31.032 4.84681 31.24 4.84681 31.464C4.84681 32.936 5.32681 34.056 6.28681 34.824C7.21481 35.592 8.38281 35.976 9.79081 35.976C10.3668 35.976 10.9588 35.912 11.5668 35.784C12.1748 35.656 12.7508 35.48 13.2948 35.256C15.3108 34.392 17.0708 33.176 18.5748 31.608C20.0788 30.04 21.3908 28.264 22.5108 26.28C23.6308 24.296 24.6228 22.264 25.4868 20.184C26.4148 17.912 27.2948 15.672 28.1268 13.464C28.9908 11.224 29.9508 9.032 31.0068 6.888C31.9988 4.904 33.0548 3.416 34.1748 2.424C35.2948 1.432 36.4148 0.935999 37.5348 0.935999C37.8228 0.935999 38.0948 1.016 38.3508 1.176C38.6388 1.336 38.7668 1.592 38.7348 1.944L38.6388 3.288C38.6388 3.384 38.5748 3.432 38.4468 3.432C38.4468 3.432 38.4308 3.432 38.3988 3.432C38.3988 3.432 38.3988 3.416 38.3988 3.384C38.3988 3 38.2548 2.744 37.9668 2.616C37.7108 2.456 37.4548 2.376 37.1988 2.376C36.1108 2.376 35.1348 2.76 34.2708 3.528C33.4388 4.264 32.7028 5.224 32.0628 6.408C31.4228 7.592 30.8788 8.84 30.4308 10.152C29.9828 11.432 29.6148 12.616 29.3268 13.704C29.5508 13.512 29.9508 13.112 30.5268 12.504C31.1348 11.896 31.8388 11.24 32.6388 10.536C33.4388 9.832 34.2548 9.224 35.0868 8.712C35.9188 8.2 36.6868 7.944 37.3908 7.944C37.8068 7.944 38.0468 8.136 38.1108 8.52C38.2068 8.872 38.2228 9.208 38.1588 9.528C37.9988 10.712 37.5988 11.992 36.9588 13.368C36.3188 14.744 35.4868 16.056 34.4628 17.304C33.4708 18.52 32.3508 19.512 31.1028 20.28C29.8868 21.048 28.6068 21.432 27.2628 21.432C27.1028 21.432 26.8788 21.416 26.5908 21.384C26.3348 21.384 26.1748 21.352 26.1108 21.288C25.4388 23.304 24.5748 25.368 23.5188 27.48C22.4628 29.592 21.1988 31.496 19.7268 33.192C18.2228 34.92 16.4468 36.216 14.3988 37.08C13.3108 37.56 12.1108 37.8 10.7988 37.8ZM27.9828 20.616C28.4628 20.616 29.0068 20.424 29.6148 20.04C30.2548 19.624 30.7348 19.256 31.0548 18.936C31.4388 18.584 31.8868 18.04 32.3988 17.304C32.9428 16.536 33.4708 15.704 33.9828 14.808C34.5268 13.912 34.9748 13.048 35.3268 12.216C35.6788 11.384 35.8548 10.712 35.8548 10.2C35.8548 10.04 35.8228 9.896 35.7588 9.768C35.6948 9.64 35.5828 9.576 35.4228 9.576C35.1348 9.576 34.7508 9.752 34.2708 10.104C33.7908 10.456 33.2788 10.888 32.7348 11.4C32.2228 11.88 31.7428 12.36 31.2948 12.84C30.8468 13.288 30.5268 13.624 30.3348 13.848C30.0148 14.232 29.5828 14.792 29.0388 15.528C28.4948 16.264 28.0148 17.016 27.5988 17.784C27.1828 18.52 26.9748 19.144 26.9748 19.656C26.9748 20.296 27.3108 20.616 27.9828 20.616Z" fill="black"/>
</g>
<defs>
<filter id="filter0_d_2_6" x="0.270813" y="0.936005" width="42.512" height="44.864" filterUnits="userSpaceOnUse" color-interpolation-filters="sRGB">
<feFlood flood-opacity="0" result="BackgroundImageFix"/>
<feColorMatrix in="SourceAlpha" type="matrix" values="0 0 0 0 0 0 0 0 0 0 0 0 0 0 0 0 0 0 127 0" result="hardAlpha"/>
<feOffset dy="4"/>
<feGaussianBlur stdDeviation="2"/>
<feComposite in2="hardAlpha" operator="out"/>
<feColorMatrix type="matrix" values="0 0 0 0 0 0 0 0 0 0 0 0 0 0 0 0 0 0 0.25 0"/>
<feBlend mode="normal" in2="BackgroundImageFix" result="effect1_dropShadow_2_6"/>
<feBlend mode="normal" in="SourceGraphic" in2="effect1_dropShadow_2_6" result="shape"/>
</filter>
</defs>
</svg>
