<svg width="28" height="28" viewBox="0 0 28 28" fill="none" xmlns="http://www.w3.org/2000/svg">
<g filter="url(#filter0_d_2_10)">
<path d="M20.015 19.096C19.535 19.096 19.055 18.952 18.575 18.664C18.095 18.408 17.487 17.912 16.751 17.176C16.047 16.44 15.055 15.352 13.775 13.912C13.071 13.08 12.399 12.344 11.759 11.704C11.151 11.064 10.399 10.744 9.503 10.744C8.799 10.744 8.111 10.968 7.439 11.416C6.767 11.832 6.335 12.392 6.143 13.096C6.111 13.288 6.063 13.464 5.999 13.624C5.935 13.784 5.855 13.944 5.759 14.104C5.663 14.264 5.503 14.344 5.279 14.344C5.119 14.344 4.975 14.28 4.847 14.152C4.687 14.024 4.607 13.848 4.607 13.624C4.607 13.528 4.671 13.352 4.799 13.096C4.959 12.808 5.263 12.424 5.711 11.944C6.159 11.432 6.655 10.888 7.199 10.312C7.743 9.736 8.255 9.208 8.735 8.728C9.215 8.216 9.599 7.848 9.887 7.624C11.199 6.504 12.415 5.432 13.535 4.408C14.687 3.352 15.935 2.28 17.279 1.192C16.863 1.192 16.287 1.208 15.551 1.24C14.815 1.272 14.031 1.32 13.199 1.384C12.399 1.448 11.695 1.544 11.087 1.672C10.479 1.8 10.095 1.976 9.935 2.2C9.711 2.488 9.487 2.632 9.263 2.632C9.135 2.632 9.071 2.584 9.071 2.488C9.071 2.392 9.151 2.264 9.311 2.104C9.599 1.784 9.823 1.48 9.983 1.192C10.143 0.872 10.303 0.567999 10.463 0.279999C10.815 0.312 11.167 0.344 11.519 0.375999C11.871 0.375999 12.239 0.375999 12.623 0.375999C13.583 0.375999 14.559 0.36 15.551 0.328C16.575 0.264 17.519 0.232 18.383 0.232C18.671 0.232 18.895 0.44 19.055 0.855999C19.247 1.24 19.359 1.544 19.391 1.768C18.303 2.568 17.087 3.448 15.743 4.408C14.399 5.336 13.087 6.312 11.807 7.336C11.199 7.784 10.495 8.376 9.695 9.112C8.927 9.816 8.271 10.392 7.727 10.84C8.623 10.392 9.455 10.168 10.223 10.168C11.247 10.168 12.159 10.504 12.959 11.176C13.791 11.848 14.687 12.648 15.647 13.576C16.607 14.536 17.567 15.368 18.527 16.072C19.487 16.776 20.303 17.128 20.975 17.128C21.199 17.096 21.423 17.048 21.647 16.984C21.871 16.92 22.063 16.824 22.223 16.696C22.479 16.472 22.607 16.216 22.607 15.928C22.607 15.576 22.463 15.208 22.175 14.824C21.887 14.472 21.631 14.232 21.407 14.104C21.375 14.072 21.359 14.04 21.359 14.008C21.359 13.912 21.423 13.832 21.551 13.768C21.679 13.704 21.807 13.704 21.935 13.768C22.351 13.992 22.687 14.312 22.943 14.728C23.199 15.144 23.327 15.608 23.327 16.12C23.327 16.632 23.167 17.112 22.847 17.56C22.559 17.976 22.159 18.328 21.647 18.616C21.135 18.936 20.591 19.096 20.015 19.096Z" fill="black"/>
</g>
<defs>
<filter id="filter0_d_2_10" x="0.606995" y="0.231995" width="26.72" height="26.864" filterUnits="userSpaceOnUse" color-interpolation-filters="sRGB">
<feFlood flood-opacity="0" result="BackgroundImageFix"/>
<feColorMatrix in="SourceAlpha" type="matrix" values="0 0 0 0 0 0 0 0 0 0 0 0 0 0 0 0 0 0 127 0" result="hardAlpha"/>
<feOffset dy="4"/>
<feGaussianBlur stdDeviation="2"/>
<feComposite in2="hardAlpha" operator="out"/>
<feColorMatrix type="matrix" values="0 0 0 0 0 0 0 0 0 0 0 0 0 0 0 0 0 0 0.25 0"/>
<feBlend mode="normal" in2="BackgroundImageFix" result="effect1_dropShadow_2_10"/>
<feBlend mode="normal" in="SourceGraphic" in2="effect1_dropShadow_2_10" result="shape"/>
</filter>
</defs>
</svg>
