<svg width="24" height="28" viewBox="0 0 24 28" fill="none" xmlns="http://www.w3.org/2000/svg">
<g filter="url(#filter0_d_2_8)">
<path d="M8.39144 19.384C7.07944 19.384 6.16744 19.128 5.65544 18.616C5.14344 18.104 4.88744 17.48 4.88744 16.744C4.88744 15.816 5.12744 14.824 5.60744 13.768C6.11944 12.712 6.59944 11.816 7.04744 11.08C7.55944 10.312 8.24744 9.512 9.11144 8.68C9.97544 7.848 10.9194 7.144 11.9434 6.568C12.9674 5.992 13.9594 5.704 14.9194 5.704C15.7514 5.704 16.3274 5.912 16.6474 6.328C16.9674 6.712 17.1274 7.176 17.1274 7.72C17.1274 8.712 16.8234 9.528 16.2154 10.168C15.6394 10.808 14.9194 11.336 14.0554 11.752C13.1914 12.136 12.3594 12.456 11.5594 12.712C11.0794 12.84 10.5194 12.968 9.87944 13.096C9.23944 13.224 8.63144 13.288 8.05544 13.288C7.83144 13.864 7.65544 14.424 7.52744 14.968C7.39944 15.512 7.33544 16.008 7.33544 16.456C7.33544 17 7.46344 17.448 7.71944 17.8C8.00744 18.152 8.47144 18.328 9.11144 18.328C9.36744 18.328 9.67144 18.296 10.0234 18.232C10.3754 18.168 10.7594 18.072 11.1754 17.944C12.1354 17.624 13.0794 17.112 14.0074 16.408C14.9354 15.704 15.7834 14.952 16.5514 14.152C17.3514 13.32 17.9594 12.632 18.3754 12.088C18.4714 12.184 18.5194 12.296 18.5194 12.424C18.5194 12.584 18.4074 12.84 18.1834 13.192C17.5434 14.088 16.7114 15.016 15.6874 15.976C14.6634 16.936 13.5274 17.752 12.2794 18.424C11.0314 19.064 9.73544 19.384 8.39144 19.384ZM8.43944 12.328C8.85544 12.36 9.31944 12.36 9.83144 12.328C10.3754 12.264 10.9034 12.152 11.4154 11.992C12.7274 11.608 13.6714 11 14.2474 10.168C14.8554 9.304 15.1594 8.536 15.1594 7.864C15.1594 7.48 15.0794 7.16 14.9194 6.904C14.7594 6.648 14.5034 6.52 14.1514 6.52C13.2234 6.52 12.3914 6.872 11.6554 7.576C10.9194 8.248 10.2794 9.032 9.73544 9.928C9.19144 10.824 8.75944 11.624 8.43944 12.328ZM12.1834 2.344C11.5114 2.344 10.9194 1.992 10.4074 1.288C10.4074 1.192 10.5994 1.016 10.9834 0.759999C11.3994 0.471999 11.6714 0.295999 11.7994 0.231998C12.0234 0.103999 12.1834 0.0399995 12.2794 0.0399995C12.4394 0.135999 12.6634 0.247999 12.9514 0.375999C13.2714 0.471999 13.5594 0.551999 13.8154 0.615999C14.1034 0.679999 14.2474 0.727999 14.2474 0.759999C14.2154 0.887999 14.1194 1.048 13.9594 1.24C13.0314 1.976 12.4394 2.344 12.1834 2.344ZM17.7514 2.344C17.0794 2.344 16.4874 1.992 15.9754 1.288C15.9754 1.192 16.1674 1.016 16.5514 0.759999C16.9674 0.471999 17.2394 0.295999 17.3674 0.231998C17.5914 0.103999 17.7514 0.0399995 17.8474 0.0399995C18.0074 0.135999 18.2314 0.247999 18.5194 0.375999C18.8394 0.471999 19.1274 0.551999 19.3834 0.615999C19.6714 0.679999 19.8154 0.727999 19.8154 0.759999C19.7834 0.887999 19.6874 1.048 19.5274 1.24C18.5994 1.976 18.0074 2.344 17.7514 2.344Z" fill="black"/>
</g>
<defs>
<filter id="filter0_d_2_8" x="0.887436" y="0.0400085" width="22.928" height="27.344" filterUnits="userSpaceOnUse" color-interpolation-filters="sRGB">
<feFlood flood-opacity="0" result="BackgroundImageFix"/>
<feColorMatrix in="SourceAlpha" type="matrix" values="0 0 0 0 0 0 0 0 0 0 0 0 0 0 0 0 0 0 127 0" result="hardAlpha"/>
<feOffset dy="4"/>
<feGaussianBlur stdDeviation="2"/>
<feComposite in2="hardAlpha" operator="out"/>
<feColorMatrix type="matrix" values="0 0 0 0 0 0 0 0 0 0 0 0 0 0 0 0 0 0 0.25 0"/>
<feBlend mode="normal" in2="BackgroundImageFix" result="effect1_dropShadow_2_8"/>
<feBlend mode="normal" in="SourceGraphic" in2="effect1_dropShadow_2_8" result="shape"/>
</filter>
</defs>
</svg>
